<svg width="12" height="12" viewBox="0 0 12 12" fill="none" xmlns="http://www.w3.org/2000/svg">
<path d="M10.9955 0H1.58797C1.26282 0 1 0.262823 1 0.587972V2.11082C1 2.41833 1.12524 2.72055 1.34279 2.9381L4.52783 6.12314V10.5835C4.52783 10.7875 4.63367 10.9763 4.80712 11.0839C4.90119 11.1421 5.00821 11.1715 5.1158 11.1715C5.20576 11.1715 5.29572 11.1509 5.37863 11.1097L7.73052 9.93379C7.92984 9.83383 8.05566 9.63039 8.05566 9.40755V6.12314L11.2407 2.9381C11.4583 2.72055 11.5835 2.41833 11.5835 2.11082V0.587972C11.5835 0.262823 11.3207 0 10.9955 0ZM7.052 5.46402C6.94146 5.57397 6.87972 5.72332 6.87972 5.87972V9.04419L5.70378 9.63216V5.87972C5.70378 5.72332 5.64204 5.57397 5.5315 5.46402L2.17594 2.11082V1.17594H10.4081L10.4093 2.1067L7.052 5.46402Z" fill="#FFFFFF"/>
</svg>
