<svg width="30" height="30" viewBox="0 0 30 30" fill="none" xmlns="http://www.w3.org/2000/svg">
<path d="M17 9H13C11.6441 9 10.532 9 9.60915 9.05445C7.96519 9.15144 6.92193 9.42122 6.17157 10.1716C5 11.3431 5 13.2288 5 17C5 20.7712 5 22.6569 6.17157 23.8284C7.34315 25 9.22876 25 13 25H17C20.7712 25 22.6569 25 23.8284 23.8284C25 22.6569 25 20.7712 25 17C25 13.2288 25 11.3431 23.8284 10.1716C23.0781 9.42122 22.0348 9.15144 20.3909 9.05445C19.468 9 18.3559 9 17 9Z" stroke="white" stroke-width="1.5"/>
<path d="M9.60938 9.05445C10.4328 9.03358 11.1593 8.45491 11.4394 7.68032C11.4481 7.65649 11.4569 7.62999 11.4746 7.57697L11.5002 7.5C11.5424 7.37344 11.5635 7.31014 11.5861 7.254C11.8743 6.53712 12.5496 6.05037 13.3208 6.00366C13.3812 6 13.4479 6 13.5814 6H16.4191C16.5525 6 16.6192 6 16.6796 6.00366C17.4508 6.05037 18.1262 6.53712 18.4144 7.254C18.4369 7.31014 18.458 7.37343 18.5002 7.5L18.5259 7.57697C18.5435 7.62992 18.5524 7.65651 18.561 7.68032C18.8412 8.45491 19.5676 9.03358 20.3911 9.05445" stroke="white" stroke-width="1.5"/>
<path d="M24.6613 11.7197C21.6515 13.6761 20.1465 14.6543 18.56 15.1472C16.2411 15.8677 13.7581 15.8677 11.4391 15.1472C9.85265 14.6543 8.34773 13.6761 5.33789 11.7197" stroke="white" stroke-width="1.5" stroke-linecap="round"/>
<path d="M11 14V16" stroke="white" stroke-width="1.5" stroke-linecap="round"/>
<path d="M19 14V16" stroke="white" stroke-width="1.5" stroke-linecap="round"/>
</svg>
