<svg width="30" height="30" viewBox="0 0 30 30" fill="none" xmlns="http://www.w3.org/2000/svg">
<path d="M5 15C5 11.2288 5 9.34315 6.17157 8.17157C7.34315 7 9.22876 7 13 7H17C20.7712 7 22.6569 7 23.8284 8.17157C25 9.34315 25 11.2288 25 15C25 18.7712 25 20.6569 23.8284 21.8284C22.6569 23 20.7712 23 17 23H13C9.22876 23 7.34315 23 6.17157 21.8284C5 20.6569 5 18.7712 5 15Z" stroke="white" stroke-width="1.5"/>
<path d="M9 11L11.1589 12.7991C12.9955 14.3296 13.9139 15.0949 15 15.0949C16.0861 15.0949 17.0045 14.3296 18.8411 12.7991L21 11" stroke="white" stroke-width="1.5" stroke-linecap="round"/>
</svg>
