<svg width="32" height="32" viewBox="0 0 32 32" fill="none" xmlns="http://www.w3.org/2000/svg">
<path d="M5.78598 25.888L0.786177 23.3711C0.550498 23.2521 0.352313 23.0703 0.213563 22.8457C0.074813 22.6211 0.000898756 22.3625 0 22.0985V13.1056C0.000349035 12.862 0.06292 12.6225 0.181769 12.4097C0.300619 12.197 0.471806 12.0182 0.679128 11.8902C0.88645 11.7622 1.12304 11.6892 1.36646 11.6782C1.60987 11.6672 1.85205 11.7186 2.07006 11.8274L7.06986 14.3443C7.3064 14.4637 7.50514 14.6464 7.64395 14.8721C7.78275 15.0978 7.85619 15.3576 7.85604 15.6225V24.6097C7.85569 24.8534 7.79312 25.0929 7.67427 25.3056C7.55542 25.5183 7.38422 25.6972 7.1769 25.8252C6.96957 25.9532 6.733 26.0262 6.48959 26.0372C6.24617 26.0481 6.00399 25.9968 5.78598 25.888Z" fill="#24FC7A"/>
<path d="M29.9068 25.8767L13.5047 17.2402C13.275 17.119 13.0825 16.9377 12.948 16.7155C12.8135 16.4933 12.742 16.2386 12.7412 15.9789V7.01433C12.742 6.76819 12.8062 6.52639 12.9278 6.31234C13.0493 6.09828 13.224 5.91921 13.435 5.7924C13.6459 5.66559 13.886 5.59534 14.1321 5.58845C14.3781 5.58156 14.6218 5.63826 14.8395 5.75306L31.2416 14.3896C31.4707 14.511 31.6624 14.6926 31.7959 14.9149C31.9295 15.1371 31.9999 15.3916 31.9995 15.6509V24.6098C31.9992 24.8556 31.9356 25.0973 31.8147 25.3113C31.6939 25.5254 31.52 25.7048 31.3097 25.8321C31.0994 25.9594 30.8598 26.0304 30.6141 26.0382C30.3684 26.046 30.1248 25.9904 29.9068 25.8767Z" fill="white"/>
<path d="M18.4028 25.2896L2.00071 16.653C1.77517 16.5289 1.5873 16.3462 1.4569 16.1242C1.3265 15.9022 1.25841 15.6492 1.25979 15.3918V6.42718C1.25946 6.18122 1.32279 5.93934 1.44363 5.7251C1.56446 5.51086 1.73868 5.33154 1.94934 5.20458C2.16 5.07761 2.39994 5.00732 2.64581 5.00054C2.89169 4.99377 3.13514 5.05074 3.35247 5.16591L19.7546 13.8025C19.9843 13.9236 20.1768 14.105 20.3113 14.3272C20.4458 14.5494 20.5173 14.804 20.5181 15.0637V24.0227C20.5199 24.2717 20.4567 24.5169 20.3346 24.734C20.2126 24.9511 20.0361 25.1326 19.8224 25.2605C19.6088 25.3885 19.3655 25.4585 19.1165 25.4636C18.8675 25.4687 18.6215 25.4087 18.4028 25.2896Z" fill="#141414"/>
<path d="M17.143 25.8765L0.740941 17.2399C0.515404 17.1158 0.327533 16.9331 0.197134 16.7111C0.0667356 16.4892 -0.00135965 16.2361 2.0572e-05 15.9787V7.0141C-0.00030587 6.76813 0.0630282 6.52625 0.183861 6.31201C0.304694 6.09777 0.478911 5.91846 0.689574 5.79149C0.900237 5.66452 1.14018 5.59423 1.38605 5.58745C1.63192 5.58068 1.87537 5.63765 2.09271 5.75283L18.4948 14.3894C18.7246 14.5105 18.917 14.6919 19.0515 14.9141C19.186 15.1363 19.2575 15.3909 19.2583 15.6506V24.6096C19.2601 24.8586 19.1969 25.1038 19.0749 25.3209C18.9529 25.538 18.7763 25.7195 18.5627 25.8474C18.349 25.9754 18.1057 26.0454 17.8567 26.0505C17.6077 26.0556 17.3617 25.9956 17.143 25.8765Z" fill="#24FC7A"/>
<path d="M29.6385 21.1722L26.5379 19.6348C26.4945 19.6132 26.4581 19.5809 26.4326 19.5414C26.4072 19.5018 26.3937 19.4565 26.3936 19.4103V17.8145C26.3937 17.7707 26.4058 17.7276 26.4288 17.6895C26.4518 17.6514 26.4848 17.6195 26.5247 17.597C26.5646 17.5744 26.61 17.5619 26.6565 17.5606C26.703 17.5594 26.7491 17.5695 26.7902 17.5899L29.8908 19.1273C29.9341 19.149 29.9703 19.1813 29.9956 19.2208C30.0208 19.2604 30.0341 19.3057 30.034 19.3519V20.9466C30.034 20.9904 30.022 21.0334 29.9991 21.0715C29.9763 21.1096 29.9434 21.1416 29.9036 21.1642C29.8639 21.1869 29.8186 21.1995 29.7722 21.2009C29.7257 21.2023 29.6797 21.1924 29.6385 21.1722Z" fill="#141414"/>
</svg>
