<svg width="15" height="12" viewBox="0 0 15 12" fill="none" xmlns="http://www.w3.org/2000/svg">
<path fill-rule="evenodd" clip-rule="evenodd" d="M5.72214 0.0703127H8.42922C9.63884 0.0703023 10.5969 0.070294 11.3468 0.171107C12.1185 0.274858 12.7431 0.493458 13.2356 0.986033C13.7282 1.47861 13.9468 2.10321 14.0506 2.8749C14.1101 3.31778 14.1345 3.83332 14.1445 4.43043C14.149 4.45734 14.1514 4.48498 14.1514 4.51318C14.1514 4.53639 14.1498 4.55922 14.1467 4.58157C14.1514 4.95393 14.1514 5.35689 14.1514 5.79246V5.86672C14.1514 7.07634 14.1514 8.03444 14.0506 8.78428C13.9468 9.55597 13.7282 10.1806 13.2356 10.6731C12.7431 11.1657 12.1185 11.3843 11.3468 11.4881C10.5969 11.5889 9.63884 11.5889 8.42922 11.5889H5.72215C4.51253 11.5889 3.55442 11.5889 2.80459 11.4881C2.0329 11.3843 1.4083 11.1657 0.915721 10.6731C0.423146 10.1806 0.204545 9.55597 0.100794 8.78428C-1.85371e-05 8.03444 -1.02234e-05 7.07634 2.12313e-07 5.86672V5.79246C-3.55395e-06 5.35688 -7.00628e-06 4.95392 0.00469714 4.58156C0.0016008 4.55921 4.47705e-07 4.53638 4.47705e-07 4.51318C4.47705e-07 4.48499 0.00236417 4.45735 0.00690421 4.43044C0.0168776 3.83333 0.0412495 3.31779 0.100794 2.8749C0.204545 2.10321 0.423146 1.47861 0.915721 0.986033C1.4083 0.493458 2.0329 0.274858 2.80459 0.171107C3.55442 0.070294 4.51252 0.0703023 5.72214 0.0703127ZM0.988613 5.00684C0.987362 5.26248 0.987305 5.5361 0.987305 5.82959C0.987305 7.08466 0.988353 7.97631 1.07929 8.65272C1.16833 9.31493 1.33529 9.69646 1.61385 9.97502C1.89241 10.2536 2.27393 10.4205 2.93614 10.5096C3.61256 10.6005 4.5042 10.6016 5.75928 10.6016H8.39209C9.64716 10.6016 10.5388 10.6005 11.2152 10.5096C11.8774 10.4205 12.259 10.2536 12.5375 9.97502C12.8161 9.69646 12.983 9.31493 13.0721 8.65272C13.163 7.97631 13.1641 7.08466 13.1641 5.82959C13.1641 5.5361 13.164 5.26248 13.1628 5.00684H0.988613ZM13.1469 4.01953H1.00447C1.01734 3.63334 1.03987 3.29968 1.07929 3.00646C1.16833 2.34425 1.33529 1.96272 1.61385 1.68416C1.89241 1.4056 2.27393 1.23864 2.93614 1.14961C3.61256 1.05867 4.5042 1.05762 5.75928 1.05762H8.39209C9.64716 1.05762 10.5388 1.05867 11.2152 1.14961C11.8774 1.23864 12.259 1.4056 12.5375 1.68416C12.8161 1.96272 12.983 2.34425 13.0721 3.00646C13.1115 3.29968 13.134 3.63334 13.1469 4.01953ZM2.63281 8.4624C2.63281 8.18976 2.85383 7.96875 3.12646 7.96875H5.75928C6.03191 7.96875 6.25293 8.18976 6.25293 8.4624C6.25293 8.73504 6.03191 8.95605 5.75928 8.95605H3.12646C2.85383 8.95605 2.63281 8.73504 2.63281 8.4624ZM6.91113 8.4624C6.91113 8.18976 7.13215 7.96875 7.40478 7.96875H8.39209C8.66473 7.96875 8.88574 8.18976 8.88574 8.4624C8.88574 8.73504 8.66473 8.95605 8.39209 8.95605H7.40478C7.13215 8.95605 6.91113 8.73504 6.91113 8.4624Z" fill="white"/>
</svg>
