<svg width="13" height="17" viewBox="0 0 13 17" fill="none" xmlns="http://www.w3.org/2000/svg">
<path d="M4.83982 16.1181C3.36424 16.1181 2.62645 16.1181 2.09646 15.3663C1.86703 15.0409 1.67003 14.6227 1.51673 14.1357C1.1626 13.0106 1.1626 11.4444 1.1626 8.31198C1.1626 5.17958 1.1626 3.61338 1.51673 2.4883C1.67003 2.00124 1.86703 1.58305 2.09646 1.25761C2.62645 0.50586 3.36424 0.50586 4.83982 0.50586L7.99172 0.505859C9.4673 0.505859 10.2051 0.505859 10.7351 1.25761C10.9645 1.58305 11.1615 2.00124 11.3148 2.4883C11.6689 3.61338 11.6689 5.17958 11.6689 8.31198C11.6689 11.4444 11.6689 13.0106 11.3148 14.1357C11.1615 14.6227 10.9645 15.0409 10.7351 15.3663C10.2051 16.1181 9.4673 16.1181 7.99172 16.1181H4.83982Z" stroke="white" stroke-width="0.974219"/>
<rect x="4.03516" width="4.76123" height="1.79297" rx="0.896484" fill="white"/>
<circle cx="6.41577" cy="14.457" r="0.814453" fill="white"/>
</svg>
