<svg width="41" height="41" viewBox="0 0 41 41" fill="none" xmlns="http://www.w3.org/2000/svg">
<path d="M4.68701 8.74121L9.53101 17.3995V22.6809L4.69268 31.3222L4.68701 8.74121Z" fill="#5B57A2"/>
<path d="M23.2859 14.2487L27.8249 11.4667L37.1142 11.458L23.2859 19.9293V14.2487Z" fill="#D90751"/>
<path d="M23.2603 8.68984L23.286 20.1532L18.4307 17.1698V0.0341797L23.2607 8.68984H23.2603Z" fill="#FAB718"/>
<path d="M37.1143 11.4578L27.8247 11.4665L23.2603 8.68984L18.4307 0.0341797L37.114 11.4578H37.1143Z" fill="#ED6F26"/>
<path d="M23.286 31.3702V25.8085L18.4307 22.8818L18.4333 40.0345L23.286 31.3702Z" fill="#63B22F"/>
<path d="M27.8137 28.6135L9.53067 17.3995L4.68701 8.74121L37.0946 28.6022L27.8133 28.6135H27.8137Z" fill="#1487C9"/>
<path d="M18.4338 40.0339L23.2858 31.3696L27.8135 28.6129L37.0945 28.6016L18.4338 40.0339Z" fill="#017F36"/>
<path d="M4.69263 31.322L18.4703 22.882L13.8383 20.04L9.53095 22.6807L4.69263 31.322Z" fill="#984995"/>
</svg>
