<svg width="51" height="34" viewBox="0 0 51 34" fill="none" xmlns="http://www.w3.org/2000/svg">
<path d="M9.08951 32.8144L1.23505 28.8605C0.864807 28.6736 0.553468 28.388 0.335498 28.0352C0.117528 27.6823 0.0014119 27.2761 0 26.8613V12.734C0.000548318 12.3512 0.0988444 11.9749 0.285551 11.6407C0.472258 11.3066 0.741185 11.0256 1.06688 10.8245C1.39257 10.6234 1.76424 10.5088 2.14664 10.4915C2.52903 10.4743 2.90949 10.555 3.25197 10.7259L11.1064 14.6798C11.478 14.8674 11.7902 15.1544 12.0083 15.509C12.2263 15.8635 12.3417 16.2716 12.3415 16.6879V30.8064C12.3409 31.1891 12.2426 31.5654 12.0559 31.8996C11.8692 32.2337 11.6003 32.5147 11.2746 32.7158C10.9489 32.9169 10.5772 33.0315 10.1948 33.0488C9.81245 33.066 9.43199 32.9854 9.08951 32.8144Z" fill="#24FC7A"/>
<path d="M46.983 32.7966L21.2161 19.229C20.8551 19.0387 20.5528 18.7538 20.3415 18.4047C20.1302 18.0557 20.0179 17.6557 20.0166 17.2476V3.1647C20.0178 2.77802 20.1187 2.39817 20.3097 2.0619C20.5006 1.72563 20.775 1.44431 21.1064 1.2451C21.4379 1.04589 21.8151 0.935532 22.2016 0.924709C22.5881 0.913886 22.9709 1.00295 23.313 1.18331L49.0799 14.7509C49.4398 14.9416 49.7409 15.2269 49.9506 15.5761C50.1604 15.9252 50.271 16.325 50.2705 16.7323V30.8064C50.27 31.1926 50.17 31.5721 49.9802 31.9084C49.7904 32.2448 49.5171 32.5265 49.1868 32.7265C48.8564 32.9265 48.4801 33.038 48.0941 33.0503C47.7081 33.0626 47.3254 32.9752 46.983 32.7966Z" fill="white"/>
<path d="M28.9104 31.874L3.14348 18.3064C2.78917 18.1113 2.49403 17.8243 2.28918 17.4756C2.08433 17.1269 1.97736 16.7294 1.97952 16.325V2.24204C1.97901 1.85564 2.07851 1.47566 2.26833 1.1391C2.45815 0.802533 2.73184 0.520839 3.06278 0.32138C3.39372 0.12192 3.77065 0.0114916 4.15691 0.000849517C4.54317 -0.00979255 4.92562 0.0797063 5.26704 0.260641L31.034 13.8282C31.3949 14.0186 31.6972 14.3035 31.9085 14.6526C32.1198 15.0016 32.2321 15.4016 32.2334 15.8096V29.8837C32.2362 30.2749 32.1369 30.6601 31.9452 31.0011C31.7536 31.3422 31.4762 31.6273 31.1406 31.8283C30.805 32.0293 30.4227 32.1393 30.0316 32.1473C29.6404 32.1553 29.254 32.0611 28.9104 31.874Z" fill="#141414"/>
<path d="M26.9309 32.7958L1.16398 19.2282C0.809676 19.0332 0.51454 18.7462 0.309689 18.3975C0.104839 18.0488 -0.00213595 17.6513 3.23176e-05 17.2468V3.16391C-0.000480508 2.77751 0.0990144 2.39753 0.288837 2.06097C0.47866 1.72441 0.752346 1.44271 1.08329 1.24325C1.41423 1.04379 1.79116 0.933367 2.17742 0.922725C2.56367 0.912082 2.94612 1.00158 3.28755 1.18252L29.0545 14.7501C29.4154 14.9404 29.7177 15.2254 29.929 15.5745C30.1403 15.9235 30.2526 16.3235 30.2539 16.7315V30.8056C30.2567 31.1968 30.1574 31.5819 29.9658 31.923C29.7741 32.2641 29.4967 32.5492 29.1611 32.7502C28.8255 32.9512 28.4432 33.0612 28.0521 33.0692C27.6609 33.0772 27.2745 32.983 26.9309 32.7958Z" fill="#24FC7A"/>
<path d="M46.5605 25.4061L41.6896 22.9909C41.6214 22.9571 41.5643 22.9063 41.5243 22.8442C41.4844 22.7821 41.4631 22.7109 41.4629 22.6382V20.1313C41.4631 20.0625 41.4822 19.9949 41.5183 19.935C41.5544 19.8752 41.6063 19.8251 41.6689 19.7896C41.7316 19.7542 41.8029 19.7345 41.8759 19.7326C41.949 19.7307 42.0214 19.7465 42.086 19.7786L46.9569 22.1938C47.0249 22.2277 47.0818 22.2785 47.1215 22.3407C47.1611 22.4028 47.182 22.474 47.1819 22.5465V25.0518C47.1818 25.1206 47.1629 25.1881 47.1271 25.248C47.0912 25.3079 47.0395 25.358 46.9771 25.3936C46.9146 25.4292 46.8435 25.4491 46.7705 25.4513C46.6975 25.4534 46.6252 25.4379 46.5605 25.4061Z" fill="#141414"/>
</svg>
