<svg width="134" height="35" viewBox="0 0 134 35" fill="none" xmlns="http://www.w3.org/2000/svg">
<path d="M9.08951 32.8144L1.23505 28.8605C0.864807 28.6736 0.553468 28.388 0.335498 28.0352C0.117528 27.6823 0.0014119 27.2761 0 26.8613V12.734C0.000548318 12.3512 0.0988444 11.9749 0.285551 11.6407C0.472258 11.3066 0.741185 11.0256 1.06688 10.8245C1.39257 10.6234 1.76424 10.5088 2.14664 10.4915C2.52903 10.4743 2.90949 10.555 3.25197 10.7259L11.1064 14.6798C11.478 14.8674 11.7902 15.1544 12.0083 15.509C12.2263 15.8635 12.3417 16.2716 12.3415 16.6879V30.8064C12.3409 31.1891 12.2426 31.5654 12.0559 31.8996C11.8692 32.2337 11.6003 32.5147 11.2746 32.7158C10.9489 32.9169 10.5772 33.0315 10.1948 33.0488C9.81245 33.066 9.43199 32.9854 9.08951 32.8144Z" fill="#24FC7A"/>
<path d="M46.983 32.7966L21.2161 19.229C20.8551 19.0387 20.5528 18.7538 20.3415 18.4047C20.1302 18.0557 20.0179 17.6557 20.0166 17.2476V3.1647C20.0178 2.77802 20.1187 2.39817 20.3097 2.0619C20.5006 1.72563 20.775 1.44431 21.1064 1.2451C21.4379 1.04589 21.8151 0.935532 22.2016 0.924709C22.5881 0.913886 22.9709 1.00295 23.313 1.18331L49.0799 14.7509C49.4398 14.9416 49.7409 15.2269 49.9506 15.5761C50.1604 15.9252 50.271 16.325 50.2705 16.7323V30.8064C50.27 31.1926 50.17 31.5721 49.9802 31.9084C49.7904 32.2448 49.5171 32.5265 49.1868 32.7265C48.8564 32.9265 48.4801 33.038 48.0941 33.0503C47.7081 33.0626 47.3254 32.9752 46.983 32.7966Z" fill="white"/>
<path d="M28.9104 31.874L3.14348 18.3064C2.78917 18.1113 2.49403 17.8243 2.28918 17.4756C2.08433 17.1269 1.97736 16.7294 1.97952 16.325V2.24204C1.97901 1.85564 2.07851 1.47566 2.26833 1.1391C2.45815 0.802533 2.73184 0.520839 3.06278 0.32138C3.39372 0.12192 3.77065 0.0114916 4.15691 0.000849517C4.54317 -0.00979255 4.92562 0.0797063 5.26704 0.260641L31.034 13.8282C31.3949 14.0186 31.6972 14.3035 31.9085 14.6526C32.1198 15.0016 32.2321 15.4016 32.2334 15.8096V29.8837C32.2362 30.2749 32.1369 30.6601 31.9452 31.0011C31.7536 31.3422 31.4762 31.6273 31.1406 31.8283C30.805 32.0293 30.4227 32.1393 30.0316 32.1473C29.6404 32.1553 29.254 32.0611 28.9104 31.874Z" fill="#141414"/>
<path d="M26.9309 32.7958L1.16398 19.2282C0.809676 19.0332 0.51454 18.7462 0.309689 18.3975C0.104839 18.0488 -0.00213595 17.6513 3.23176e-05 17.2468V3.16391C-0.000480508 2.77751 0.0990144 2.39753 0.288837 2.06097C0.47866 1.72441 0.752346 1.44271 1.08329 1.24325C1.41423 1.04379 1.79116 0.933367 2.17742 0.922725C2.56367 0.912082 2.94612 1.00158 3.28755 1.18252L29.0545 14.7501C29.4154 14.9404 29.7177 15.2254 29.929 15.5745C30.1403 15.9235 30.2526 16.3235 30.2539 16.7315V30.8056C30.2567 31.1968 30.1574 31.5819 29.9658 31.923C29.7741 32.2641 29.4967 32.5492 29.1611 32.7502C28.8255 32.9512 28.4432 33.0612 28.0521 33.0692C27.6609 33.0772 27.2745 32.983 26.9309 32.7958Z" fill="#24FC7A"/>
<path d="M46.5605 25.4061L41.6896 22.9909C41.6214 22.9571 41.5643 22.9063 41.5243 22.8442C41.4844 22.7821 41.4631 22.7109 41.4629 22.6382V20.1313C41.4631 20.0625 41.4822 19.9949 41.5183 19.935C41.5544 19.8752 41.6063 19.8251 41.6689 19.7896C41.7316 19.7542 41.8029 19.7345 41.8759 19.7326C41.949 19.7307 42.0214 19.7465 42.086 19.7786L46.9569 22.1938C47.0249 22.2277 47.0818 22.2785 47.1215 22.3407C47.1611 22.4028 47.182 22.474 47.1819 22.5465V25.0518C47.1818 25.1206 47.1629 25.1881 47.1271 25.248C47.0912 25.3079 47.0395 25.358 46.9771 25.3936C46.9146 25.4292 46.8435 25.4491 46.7705 25.4513C46.6975 25.4534 46.6252 25.4379 46.5605 25.4061Z" fill="#141414"/>
<path d="M63.9749 11.0343C64.6802 11.0343 65.3041 11.1482 65.8466 11.3761C66.4 11.5931 66.8665 11.9078 67.2463 12.3201C67.6369 12.7216 67.9353 13.199 68.1415 13.7524C68.3476 14.2949 68.4507 14.8971 68.4507 15.559C68.4507 16.3836 68.2771 17.116 67.9299 17.7562C67.5935 18.3855 67.127 18.8792 66.5302 19.2373C65.9334 19.5954 65.239 19.7744 64.4469 19.7744C64.1105 19.7744 63.7904 19.731 63.4866 19.6442C63.1936 19.5574 62.9224 19.4326 62.6728 19.2699C62.4341 19.1071 62.2334 18.9064 62.0706 18.6677H62.0218V23.111H59.499V15.559C59.499 14.6367 59.6835 13.8392 60.0524 13.1664C60.4213 12.4937 60.9421 11.9729 61.6149 11.6039C62.2876 11.2242 63.0743 11.0343 63.9749 11.0343ZM63.9749 13.2153C63.5842 13.2153 63.2425 13.3129 62.9495 13.5082C62.6674 13.6927 62.4504 13.9531 62.2985 14.2895C62.1465 14.615 62.0706 14.9839 62.0706 15.3962C62.0706 15.8085 62.1465 16.1775 62.2985 16.503C62.4504 16.8285 62.6674 17.0889 62.9495 17.2842C63.2425 17.4687 63.5842 17.5609 63.9749 17.5609C64.3655 17.5609 64.7019 17.4687 64.984 17.2842C65.2661 17.0889 65.4831 16.8285 65.635 16.503C65.7978 16.1775 65.8791 15.8085 65.8791 15.3962C65.8791 14.9839 65.7978 14.615 65.635 14.2895C65.4831 13.9531 65.2661 13.6927 64.984 13.5082C64.7019 13.3129 64.3655 13.2153 63.9749 13.2153ZM69.9431 19.5791V7.69775H72.4659V19.5791H69.9431ZM77.6828 19.7744C76.945 19.7744 76.2939 19.5845 75.7297 19.2048C75.1655 18.825 74.726 18.315 74.4114 17.6748C74.0967 17.0238 73.9394 16.2914 73.9394 15.4776C73.9394 14.6312 74.1238 13.8771 74.4927 13.2153C74.8617 12.5425 75.3825 12.0108 76.0552 11.6202C76.7388 11.2296 77.5417 11.0343 78.464 11.0343C79.3972 11.0343 80.1893 11.2296 80.8403 11.6202C81.5022 12 82.0067 12.5262 82.354 13.199C82.712 13.8609 82.8911 14.6041 82.8911 15.4288V19.5791H80.4171V18.2445H80.352C80.2001 18.5374 80.0048 18.8033 79.7661 19.042C79.5274 19.2699 79.2344 19.4489 78.8872 19.5791C78.5508 19.7093 78.1494 19.7744 77.6828 19.7744ZM78.4315 17.5935C78.8113 17.5935 79.1422 17.5012 79.4243 17.3168C79.7173 17.1215 79.9397 16.8556 80.0916 16.5192C80.2435 16.1829 80.3195 15.8085 80.3195 15.3962C80.3195 14.9947 80.2435 14.6312 80.0916 14.3057C79.9397 13.9802 79.7173 13.7252 79.4243 13.5408C79.1422 13.3455 78.8113 13.2478 78.4315 13.2478C78.0409 13.2478 77.6991 13.3455 77.4061 13.5408C77.1131 13.7252 76.8907 13.9802 76.7388 14.3057C76.5869 14.6312 76.5109 14.9947 76.5109 15.3962C76.5109 15.8085 76.5869 16.1829 76.7388 16.5192C76.8907 16.8556 77.1131 17.1215 77.4061 17.3168C77.6991 17.5012 78.0409 17.5935 78.4315 17.5935ZM87.8165 19.5791C87.0461 19.5791 86.4439 19.3621 86.0099 18.9281C85.5759 18.4832 85.3589 17.8864 85.3589 17.1377V9.19512H87.8979V16.9912C87.8979 17.1215 87.9413 17.2354 88.0281 17.333C88.1258 17.4198 88.2397 17.4632 88.3699 17.4632H90.1928V19.5791H87.8165ZM83.9917 13.2966V11.2296H90.1928V13.2966H83.9917ZM92.3691 19.5791V13.2966H90.9693V11.2296H92.3691V10.1391C92.3691 9.37958 92.5861 8.7828 93.0201 8.34878C93.4541 7.91476 94.0509 7.69775 94.8104 7.69775H97.3495V9.76478H95.3638C95.2336 9.76478 95.1197 9.8136 95.022 9.91126C94.9352 9.99806 94.8918 10.1066 94.8918 10.2368V11.2296H96.9914V13.2966H94.8918V19.5791H92.3691ZM102.226 19.7744C101.369 19.7744 100.599 19.5845 99.9149 19.2048C99.2314 18.825 98.6888 18.3042 98.2874 17.6423C97.8967 16.9804 97.7014 16.2371 97.7014 15.4125C97.7014 14.577 97.8967 13.8337 98.2874 13.1827C98.6888 12.5208 99.2314 12 99.9149 11.6202C100.599 11.2296 101.369 11.0343 102.226 11.0343C103.083 11.0343 103.848 11.2296 104.521 11.6202C105.205 12 105.742 12.5208 106.132 13.1827C106.534 13.8337 106.735 14.577 106.735 15.4125C106.735 16.2371 106.534 16.9804 106.132 17.6423C105.742 18.3042 105.205 18.825 104.521 19.2048C103.837 19.5845 103.072 19.7744 102.226 19.7744ZM102.226 17.5772C102.628 17.5772 102.975 17.4795 103.268 17.2842C103.561 17.0889 103.789 16.8285 103.951 16.503C104.114 16.1775 104.195 15.8085 104.195 15.3962C104.195 14.9947 104.114 14.6312 103.951 14.3057C103.789 13.9802 103.561 13.7198 103.268 13.5245C102.975 13.3292 102.628 13.2315 102.226 13.2315C101.825 13.2315 101.472 13.3292 101.168 13.5245C100.875 13.7198 100.647 13.9802 100.485 14.3057C100.322 14.6312 100.24 14.9947 100.24 15.3962C100.24 15.8085 100.322 16.1775 100.485 16.503C100.647 16.8285 100.875 17.0889 101.168 17.2842C101.472 17.4795 101.825 17.5772 102.226 17.5772ZM108.168 19.5791V13.6873C108.168 12.9277 108.385 12.3309 108.819 11.8969C109.253 11.4629 109.855 11.2459 110.625 11.2459H113.05V13.2966H111.244C111.092 13.2966 110.962 13.3509 110.853 13.4594C110.745 13.557 110.69 13.6873 110.69 13.85V19.5791H108.168ZM114.177 19.5791V14.6475C114.177 13.9639 114.334 13.3509 114.649 12.8084C114.975 12.255 115.436 11.821 116.033 11.5063C116.629 11.1916 117.34 11.0343 118.165 11.0343C118.577 11.0343 118.957 11.0831 119.304 11.1808C119.651 11.2676 119.966 11.3924 120.248 11.5551C120.541 11.707 120.791 11.8915 120.997 12.1085H121.029C121.246 11.8915 121.496 11.707 121.778 11.5551C122.071 11.3924 122.391 11.2676 122.738 11.1808C123.096 11.0831 123.482 11.0343 123.894 11.0343C124.718 11.0343 125.429 11.1916 126.026 11.5063C126.623 11.821 127.084 12.255 127.409 12.8084C127.735 13.3509 127.898 13.9639 127.898 14.6475V19.5791H125.359V14.7289C125.359 14.4576 125.288 14.2135 125.147 13.9965C125.017 13.7686 124.838 13.5842 124.61 13.4431C124.382 13.3021 124.122 13.2315 123.829 13.2315C123.536 13.2315 123.27 13.3021 123.031 13.4431C122.803 13.5842 122.624 13.7686 122.494 13.9965C122.364 14.2135 122.299 14.4576 122.299 14.7289V19.5791H119.776V14.7289C119.776 14.4576 119.706 14.2135 119.564 13.9965C119.434 13.7686 119.25 13.5842 119.011 13.4431C118.783 13.3021 118.523 13.2315 118.23 13.2315C117.937 13.2315 117.671 13.3021 117.432 13.4431C117.204 13.5842 117.025 13.7686 116.895 13.9965C116.765 14.2135 116.7 14.4576 116.7 14.7289V19.5791H114.177ZM63.9749 22.0343C64.6802 22.0343 65.3041 22.1482 65.8466 22.3761C66.4 22.5931 66.8665 22.9078 67.2463 23.3201C67.6369 23.7216 67.9353 24.199 68.1415 24.7524C68.3476 25.2949 68.4507 25.8971 68.4507 26.559C68.4507 27.3836 68.2771 28.116 67.9299 28.7562C67.5935 29.3855 67.127 29.8792 66.5302 30.2373C65.9334 30.5954 65.239 30.7744 64.4469 30.7744C64.1105 30.7744 63.7904 30.731 63.4866 30.6442C63.1936 30.5574 62.9224 30.4326 62.6728 30.2699C62.4341 30.1071 62.2334 29.9064 62.0706 29.6677H62.0218V34.111H59.499V26.559C59.499 25.6367 59.6835 24.8392 60.0524 24.1664C60.4213 23.4937 60.9421 22.9729 61.6149 22.6039C62.2876 22.2242 63.0743 22.0343 63.9749 22.0343ZM63.9749 24.2153C63.5842 24.2153 63.2425 24.3129 62.9495 24.5082C62.6674 24.6927 62.4504 24.9531 62.2985 25.2895C62.1465 25.615 62.0706 25.9839 62.0706 26.3962C62.0706 26.8085 62.1465 27.1775 62.2985 27.503C62.4504 27.8285 62.6674 28.0889 62.9495 28.2842C63.2425 28.4687 63.5842 28.5609 63.9749 28.5609C64.3655 28.5609 64.7019 28.4687 64.984 28.2842C65.2661 28.0889 65.4831 27.8285 65.635 27.503C65.7978 27.1775 65.8791 26.8085 65.8791 26.3962C65.8791 25.9839 65.7978 25.615 65.635 25.2895C65.4831 24.9531 65.2661 24.6927 64.984 24.5082C64.7019 24.3129 64.3655 24.2153 63.9749 24.2153ZM73.296 30.7744C72.5581 30.7744 71.9071 30.5845 71.3429 30.2048C70.7786 29.825 70.3392 29.315 70.0245 28.6748C69.7098 28.0238 69.5525 27.2914 69.5525 26.4776C69.5525 25.6312 69.737 24.8771 70.1059 24.2153C70.4748 23.5425 70.9956 23.0108 71.6684 22.6202C72.352 22.2296 73.1549 22.0343 74.0772 22.0343C75.0103 22.0343 75.8024 22.2296 76.4535 22.6202C77.1154 23 77.6199 23.5262 77.9671 24.199C78.3252 24.8609 78.5042 25.6041 78.5042 26.4288V30.5791H76.0303V29.2445H75.9652C75.8133 29.5374 75.618 29.8033 75.3793 30.042C75.1406 30.2699 74.8476 30.4489 74.5004 30.5791C74.164 30.7093 73.7625 30.7744 73.296 30.7744ZM74.0446 28.5935C74.4244 28.5935 74.7554 28.5012 75.0375 28.3168C75.3304 28.1215 75.5529 27.8556 75.7048 27.5192C75.8567 27.1829 75.9326 26.8085 75.9326 26.3962C75.9326 25.9947 75.8567 25.6312 75.7048 25.3057C75.5529 24.9802 75.3304 24.7252 75.0375 24.5408C74.7554 24.3455 74.4244 24.2478 74.0446 24.2478C73.654 24.2478 73.3122 24.3455 73.0193 24.5408C72.7263 24.7252 72.5039 24.9802 72.352 25.3057C72.2001 25.6312 72.1241 25.9947 72.1241 26.3962C72.1241 26.8085 72.2001 27.1829 72.352 27.5192C72.5039 27.8556 72.7263 28.1215 73.0193 28.3168C73.3122 28.5012 73.654 28.5935 74.0446 28.5935ZM83.2669 33.8831V30.6279C82.6593 30.476 82.1385 30.2319 81.7045 29.8955C81.2704 29.5483 80.9395 29.1306 80.7116 28.6423C80.4838 28.1432 80.3698 27.606 80.3698 27.031V22.2296H82.8926V26.9496C82.8926 27.2426 82.9631 27.5138 83.1042 27.7634C83.2452 28.0129 83.4351 28.2137 83.6738 28.3656C83.9234 28.5066 84.2001 28.5772 84.5039 28.5772C84.8186 28.5772 85.0953 28.5066 85.334 28.3656C85.5835 28.2137 85.7788 28.0129 85.9199 27.7634C86.061 27.5138 86.1315 27.2426 86.1315 26.9496V22.2296H88.6542V27.031C88.6542 27.606 88.5403 28.1377 88.3124 28.626C88.0954 29.1143 87.7699 29.532 87.3359 29.8792C86.9127 30.2265 86.3973 30.4706 85.7897 30.6117V33.8831H83.2669Z" fill="white"/>
</svg>
