<svg width="40" height="40" viewBox="0 0 40 40" fill="none" xmlns="http://www.w3.org/2000/svg">
<rect width="40" height="40" fill="#FF5000"/>
<path d="M12.375 15.875V17.625H12C11.3125 16.375 10 15.625 8.5 15.625C6.0625 15.625 3.75 17.9375 3.75 20.9375C3.75 23.9375 6 26.1875 8.5 26.1875C10 26.1875 11.3125 25.4375 12 24.1875H12.375V25.9375H14.5625V15.875H12.375ZM9.125 24.125C7.375 24.125 5.9375 22.75 5.9375 20.875C5.9375 19.0625 7.3125 17.625 9.125 17.625C10.875 17.625 12.375 19 12.375 20.875C12.375 22.75 10.9375 24.125 9.125 24.125Z" fill="white"/>
<path d="M23.6874 19.5625H19.8749V17.9375H26.3124V15.9375H17.6874V26H23.6874C25.7499 26 27.1249 24.625 27.1249 22.75C27.1249 20.9375 25.6874 19.5625 23.6874 19.5625ZM23.4374 24H19.8749V21.5H23.4374C24.4374 21.5 24.9374 22 24.9374 22.75C24.9374 23.5 24.4374 24 23.4374 24Z" fill="white"/>
<path d="M32.5 20C34.5625 20 36.25 18.3125 36.25 16.25C36.25 14.1875 34.5625 12.5 32.5 12.5C30.4375 12.5 28.75 14.1875 28.75 16.25C28.75 18.3125 30.4375 20 32.5 20Z" fill="#00F500"/>
</svg>
