<svg width="40" height="40" viewBox="0 0 40 40" fill="none" xmlns="http://www.w3.org/2000/svg">
<rect width="40" height="40" fill="#009C32"/>
<path d="M34.8235 18.9386C34.3951 17.8539 33.3373 17.2632 32.1925 17.4699L29.84 17.8936C29.4494 17.9639 29.1902 18.3377 29.2598 18.7283C29.33 19.1189 29.7032 19.3785 30.0932 19.3088L32.4457 18.8851C33.0055 18.7842 33.3511 19.1195 33.4879 19.4662C33.6253 19.8135 33.6013 20.2949 33.1243 20.6044L29.6714 22.8453C29.3504 23.0532 28.9598 23.0676 28.6256 22.8855C28.2908 22.7034 28.0904 22.3663 28.0904 21.9847V14.7237C28.0904 14.3265 27.7694 14.0044 27.3728 14.0044C26.9762 14.0044 26.6552 14.3265 26.6552 14.7237V21.9859C26.6552 22.9029 27.1352 23.7118 27.9398 24.1499C28.3136 24.353 28.7162 24.4545 29.117 24.4545C29.5796 24.4545 30.0404 24.3205 30.452 24.0531L33.9049 21.8122C34.8829 21.1776 35.2519 20.0233 34.8235 18.9386V18.9386ZM22.6778 17.4705L20.3252 17.8942C19.9352 17.9645 19.676 18.3383 19.7456 18.7289C19.8158 19.1195 20.189 19.3791 20.579 19.3094L22.9316 18.8857C23.492 18.7848 23.837 19.1201 23.9744 19.4668C24.1112 19.8141 24.0878 20.2955 23.6102 20.605L20.1572 22.8459C19.8368 23.0538 19.4462 23.0682 19.1114 22.8861C18.7766 22.704 18.5768 22.3669 18.5768 21.9853V16.4688C18.5768 15.5511 18.0968 14.7423 17.2922 14.3043C16.4876 13.8668 15.5486 13.9029 14.78 14.401L6.09446 20.0371C5.11707 20.6711 4.74807 21.8255 5.17647 22.9101C5.60427 23.9942 6.66146 24.5844 7.80745 24.3782L15.3908 23.0129C15.7808 22.9426 16.0406 22.5688 15.9704 22.1782C15.9002 21.7876 15.527 21.5274 15.137 21.5977L7.55366 22.963C6.99326 23.064 6.64826 22.7286 6.51146 22.3819C6.37406 22.0346 6.39746 21.5532 6.87506 21.2432L15.5588 15.6083C15.8786 15.4009 16.2698 15.3859 16.6046 15.568C16.9394 15.7507 17.1392 16.0878 17.1392 16.4694V21.9859C17.1392 22.9029 17.6192 23.7118 18.4238 24.1499C18.7976 24.353 19.2008 24.4545 19.6016 24.4545C20.0642 24.4545 20.5244 24.3205 20.936 24.0531L24.3896 21.8122C25.3664 21.1782 25.7354 20.0239 25.3076 18.9392C24.881 17.8539 23.8226 17.2644 22.6778 17.4705V17.4705Z" fill="white"/>
</svg>
