<svg width="40" height="40" viewBox="0 0 40 40" fill="none" xmlns="http://www.w3.org/2000/svg">
<rect width="40" height="40" fill="#FE5000"/>
<path d="M28.0479 8H11.993C9.78851 8 8 9.78547 8 11.9862V28.0138C8 30.2145 9.78851 32 11.993 32H28.0063C30.2108 32 31.9993 30.2145 31.9993 28.0138V11.9862C32.0409 9.78547 30.2524 8 28.0479 8ZM30.7931 27.5986C30.7515 27.6402 30.6683 27.6817 30.6267 27.6402C27.5488 25.7716 23.8886 24.6921 20.0205 24.6921C16.1523 24.6921 12.4921 25.7716 9.41417 27.6402C9.37258 27.6817 9.28939 27.6402 9.2478 27.5986C9.2062 27.5156 9.2478 27.474 9.28939 27.4325C12.1177 25.2733 14.5302 22.5329 16.4019 19.2941C18.2735 16.0554 19.4382 12.5675 19.8957 9.07959C19.8957 9.03806 19.9372 8.95502 20.0205 8.95502C20.1036 8.95502 20.1452 8.99654 20.1452 9.07959C20.6028 12.5675 21.7674 16.0554 23.6391 19.2941C25.5108 22.5329 27.9648 25.2733 30.7515 27.391C30.8347 27.474 30.8347 27.5156 30.7931 27.5986Z" fill="white"/>
</svg>
