<svg width="40" height="40" viewBox="0 0 40 40" fill="none" xmlns="http://www.w3.org/2000/svg">
<path d="M40 36.8C35.5 35.4 28.1 34.5 19.8 34.5C11.7 34.5 4.5 35.4 0 36.7V40H40V36.8ZM20 17.9C28.1 17.9 35.7 22.2 40 26.6V23.3C35.4 16.7 28.1 12.4 20 12.4C11.9 12.4 4.6 16.7 0 23.3V26.6C4.3 22.1 11.6 18.2 20 17.9C20.1 17.9 20.1 17.9 20 17.9V17.9Z" fill="#E92314"/>
<path d="M20 28.9C28.2 28.9 35 30.7 40 33.2V29.8C35 25.9 28.2 23.5 20 23.3C11.8 23.6 5 26.1 0 29.9V33.2C5.1 30.8 11.8 28.9 20 28.9V28.9Z" fill="#E92314"/>
<path d="M40 20.4C35.5 12 28.1 6.6 19.8 6.6C11.7 6.6 4.6 11.8 0 19.7V0H40V20.4Z" fill="black"/>
</svg>
