<svg width="41" height="41" viewBox="0 0 41 41" fill="none" xmlns="http://www.w3.org/2000/svg">
<path fill-rule="evenodd" clip-rule="evenodd" d="M0.687012 20.8448C0.687012 9.80425 9.66054 0.833984 20.7006 0.833984C31.7157 0.833984 40.687 9.80425 40.687 20.8448C40.687 31.8626 31.7157 40.834 20.7006 40.834C9.66054 40.834 0.687012 31.8626 0.687012 20.8448ZM1.6869 20.8448C1.6869 31.3114 10.2161 39.8336 20.7006 39.8336C31.1639 39.8336 39.6871 31.3092 39.6871 20.8448C39.6871 10.3609 31.1672 1.83442 20.7006 1.83442C10.2128 1.83442 1.6869 10.3566 1.6869 20.8448ZM26.3755 8.27105C23.2103 6.85938 17.3124 6.7194 12.4812 8.87109C12.8675 8.5944 13.2706 8.34484 13.6889 8.12131C13.9438 7.98459 14.2048 7.85764 14.4701 7.74154C15.9914 7.03299 18.4447 6.34614 21.5024 6.34614C21.6468 6.34614 21.7911 6.34722 21.9359 6.35048C24.5504 6.39714 27.6499 7.29991 29.5444 9.17383C29.8667 9.56662 30.0533 9.95833 30.1222 10.2611C31.6256 11.025 32.5034 11.7411 32.9879 12.5744C33.1979 13.0128 33.2668 13.474 33.1724 14.0067C33.6655 14.2834 34.093 14.6632 34.4256 15.1211C34.6302 15.4672 34.7924 15.8568 34.8401 16.2094C34.9079 16.6684 34.9535 17.2001 34.4679 17.8262C34.9768 18.0812 35.3913 18.7951 35.4412 19.099C35.6957 20.2285 34.9535 21.3396 34.0068 22.1979C33.2982 22.8164 32.0455 23.5109 30.7147 24.0653C29.9584 24.38 29.1766 24.6502 28.4556 24.8346C25.6772 25.5378 23.1149 25.9523 20.872 26.3158C19.9454 26.4666 19.073 26.6076 18.2624 26.7563C19.0014 26.9332 19.8949 27.1447 21.0722 27.2869C21.8828 27.3856 22.8279 27.4507 23.9504 27.4507C29.8434 27.4507 35.0468 24.6719 35.0468 24.6719C35.0468 24.6719 34.9323 25.0213 34.8146 25.3457C31.07 27.6113 25.1293 28.5586 22.5837 28.4425C20.017 28.3253 17.8447 27.9336 15.7169 27.2847C15.0669 27.4681 14.4267 27.684 13.799 27.9336C17.0379 29.4136 19.4869 29.7392 22.2392 29.9453C25.0577 30.1558 29.7311 29.482 33.6579 28.0519C33.57 28.1408 33.5028 28.2504 33.4371 28.3579C33.365 28.475 33.2939 28.5911 33.1979 28.6758C31.1856 29.7392 26.9338 30.8036 24.7826 30.8958C22.6537 30.9892 20.0647 30.8958 17.798 30.4781C15.8557 30.0875 14.258 29.482 12.5946 28.7452C12.2967 28.9731 12.1578 29.2541 12.0857 29.5786C18.5869 32.9781 24.641 33.0454 31.5578 30.8958L30.9312 31.498C23.3237 34.5981 17.3813 33.3937 12.7779 31.1725C12.619 31.1031 12.4334 31.0326 12.2967 30.9414C12.7367 31.6825 16.248 34.2498 20.1792 34.5742C21.6006 34.6957 23.187 34.6252 24.6573 34.418C25.9876 34.2303 27.2235 33.9297 28.1566 33.5575L27.001 34.1576C26.0521 34.6209 23.5326 35.6875 20.0159 35.4542C15.3235 35.1287 12.6868 33.0464 11.5068 31.9614C10.9523 31.4492 10.7 30.873 10.5367 30.1558C9.47228 29.6003 8.80225 29.0197 8.24995 28.1419C7.92551 27.6569 7.99224 27.0796 8.06114 26.5903L8.20546 26.179C7.69331 25.8047 7.16216 25.4119 6.95437 25.0213C6.48888 24.1879 6.771 23.4696 7.09326 22.9141C6.99072 22.7958 6.89144 22.6775 6.80138 22.5592C6.64621 22.3542 6.51818 22.1491 6.44819 21.944C6.30767 21.574 6.28597 21.1997 6.32775 20.7852C6.42215 20.0929 6.79216 19.4473 7.27772 18.8895C8.29335 17.709 9.91553 16.7845 12.6635 15.8828C14.7587 15.1829 15.884 14.941 17.2284 14.6523C17.6217 14.5677 18.0335 14.4798 18.4935 14.3746C20.8747 13.8234 23.7192 13.64 26.0988 12.8066C19.4625 11.651 12.5734 12.7133 6.95437 16.5729L7.3233 15.4868C12.3634 12.2033 17.9369 10.2611 27.37 11.9039C27.8789 11.6022 28.1789 11.3006 28.3199 10.7005C25.9599 9.84549 23.3948 9.54492 20.0891 9.58941C17.128 9.68381 11.7846 10.7895 8.92215 12.4844L9.79671 11.395C11.7846 10.2112 16.9869 8.66385 20.8981 8.5944C23.6471 8.52604 25.0577 8.68663 28.3422 9.56662C28.0389 9.01432 27.37 8.73438 26.3755 8.27105ZM31.4156 13.0844C31.3256 12.4366 30.5856 11.8116 29.9367 11.395C29.8765 11.6055 29.711 11.8442 29.5385 12.0558C29.4452 12.1708 29.3497 12.2771 29.2677 12.3672C29.9844 12.5538 30.7244 12.8273 31.4156 13.0844ZM28.251 13.2906C27.7855 13.6617 27.2566 13.9839 26.4677 14.2878C27.7655 14.5145 28.7366 14.8856 29.8434 15.1884C29.8548 15.1938 29.8678 15.196 29.8803 15.1949C30.1211 15.1949 30.9132 14.4625 31.05 14.2617C30.6214 14.074 30.1401 13.8852 29.6242 13.7083C29.1874 13.5586 28.7263 13.4165 28.251 13.2906ZM33.1979 16.6912C33.4968 16.1128 33.3123 15.7428 32.6901 15.2101C32.4345 15.5139 32.1567 15.7656 31.8567 15.9967C32.0748 16.1009 32.2842 16.191 32.4866 16.2865C32.7335 16.4026 32.97 16.5263 33.1979 16.6912ZM22.7948 15.4672C19.7425 15.8372 16.3646 16.4818 13.4756 17.339L13.3216 17.3856C11.8876 17.8218 6.46555 19.4668 8.11214 21.7346L8.13167 21.7129C8.28901 21.5349 9.43213 20.2361 13.0346 19.189C15.5687 18.4447 18.1669 17.9716 20.8058 17.4909C23.1762 17.059 25.5796 16.6207 27.9977 15.975C26.5583 15.592 25.5774 15.3631 24.3502 15.362C23.8809 15.362 23.3758 15.3956 22.7948 15.4672ZM26.1004 18.2656C24.4593 18.6812 20.4803 19.2596 16.2046 20.184C14.8624 20.4846 11.1845 21.3396 9.38113 22.8674C9.6703 23.1061 9.90034 23.2385 10.1466 23.3676C10.3327 23.4653 10.5286 23.5618 10.7668 23.7007C11.5068 23.2135 12.5257 22.7513 14.0312 22.3563C16.4059 21.7259 18.2516 21.4221 20.3425 21.0781L20.967 20.975C23.3026 20.6213 27.7177 19.6968 30.1445 18.8179C30.7027 18.6291 31.2257 18.3947 31.6712 18.1224C31.8735 17.9987 32.0596 17.8674 32.2256 17.7296C32.0634 17.5473 30.4912 16.7845 30.4445 16.855C29.4766 17.3162 28.0888 17.7773 26.1004 18.2656ZM27.7421 21.4112C22.7948 22.7513 19.2081 22.9336 15.138 23.934C14.6692 24.0523 14.1934 24.189 13.7285 24.3453C13.3899 24.4581 13.0568 24.5818 12.7367 24.7174C13.4968 25.1113 14.3301 25.4596 15.1613 25.7841C16.8258 25.298 17.6157 25.0896 20.0159 24.6968L21.3489 24.457C22.6201 24.2248 24.3952 23.8961 25.7966 23.6118C29.4766 22.8218 34.8634 21.1096 33.4301 18.8895C33.3585 18.9503 33.2868 19.0056 33.2152 19.061C33.1246 19.1326 33.0346 19.2042 32.9445 19.2834C31.8567 20.1113 30.1222 20.7852 27.7421 21.4112ZM8.96555 25.1113C9.1256 24.9507 9.33556 24.8108 9.49778 24.6719C9.1256 24.4798 8.87061 24.3171 8.57818 24.1304L8.40999 24.023C8.22445 24.444 8.59771 24.9008 8.96555 25.1113ZM13.2646 26.4536C12.5946 26.153 11.879 25.8546 11.1845 25.5302C10.8612 25.7385 10.5622 25.9447 10.33 26.153C10.8845 26.4774 11.4178 26.7758 11.9734 27.0807C12.3819 26.829 12.8143 26.6185 13.2646 26.4536ZM10.5622 28.6063C10.629 28.373 10.7467 28.1897 10.9089 27.9586C10.7261 27.8609 10.5438 27.7643 10.3615 27.6634C10.1499 27.5451 9.9394 27.4225 9.7289 27.2847C9.7034 27.7263 9.98335 28.1191 10.5622 28.6063Z" fill="#476BF0"/>
</svg>
