<svg width="40" height="40" viewBox="0 0 40 40" fill="none" xmlns="http://www.w3.org/2000/svg">
<path d="M22.184 37.2008C24.537 37.449 27.7106 35.4947 31.7201 31.0278C34.6305 27.7706 37.3861 24.3584 39.9559 20.8376V36.0065C39.7546 37.6816 38.2685 39 36.4572 39H7.47722C9.72193 36.9682 12.1369 34.0367 14.3197 30.671C16.518 27.3053 16.8895 26.2816 18.4376 22.9314C19.0568 22.6988 20.8526 22.1094 22.1994 21.7527C20.574 25.0253 18.8865 29.12 18.7317 31.5086C18.4376 34.8433 19.8309 36.9682 22.184 37.2008ZM13.8398 24.4514C13.8398 24.4514 11.0068 29.8955 9.00981 32.4392C7.8952 33.7886 3.65346 40.7216 0.712116 38.4882C-2.12087 35.6653 5.13962 29.8335 6.57933 28.8408C9.05625 26.8865 13.8398 24.4514 13.8398 24.4514ZM3.65346 5.38939C0.975289 7.56082 0 9.76327 0 9.76327V4.36571C0 2.52 1.61 1 3.56058 1H31.1009C31.1009 1 29.4909 1.12408 27.9428 2.78367C27.0604 3.7298 24.2429 7.63837 21.1622 6.83184C18.097 6.02531 18.7008 3.49714 15.6511 2.65959C12.6014 1.82204 6.90443 2.75265 3.65346 5.38939V5.38939ZM32.2 3.62122C33.6552 2.56653 33.1908 1.26367 32.1381 1H36.4572C38.0672 1 39.4295 2.05469 39.8475 3.46612C37.417 3.23347 33.3766 4.76898 30.1875 8.70857C26.952 12.7102 24.2274 17.5804 24.2274 17.5804C24.2274 17.5804 21.7195 18.3094 20.4191 18.6971C20.8216 17.8441 22.6484 14.3388 25.7136 9.98041C28.3143 6.28898 30.9616 4.52082 32.2 3.62122V3.62122ZM15.7594 20.031C10.8985 21.5045 3.29741 25.4131 0 29.849V15.0367C1.19202 16.8359 2.77106 17.9061 4.81452 18.3869C7.39981 18.9143 9.9851 18.5265 12.2917 17.2547C13.3444 16.6808 14.2888 15.9673 15.1402 15.1143C16.8586 13.3927 16.2393 11.3453 14.8306 10.9265C13.4218 10.5233 12.0595 11.4539 11.3629 12.5706C10.6508 13.7029 9.72193 15.0833 6.70318 15.0833C5.18606 15.0833 3.39029 14.1216 2.92587 11.9502C2.16731 8.64653 6.39356 5.23429 10.2173 4.66041C16.3941 3.71429 14.8306 7.80898 17.7874 9.85633C18.5305 10.3992 20.4811 11.0661 22.2614 9.84082C21.317 11.1747 17.3075 17.3322 15.7594 20.031ZM33.7171 8.77061C35.5439 6.70776 38.5007 5.29633 39.7546 6.80082C40.9931 8.32082 37.2622 11.3143 34.8472 12.8033C32.4477 14.2922 30.1256 15.5796 28.1441 16.4171C29.3825 14.1216 32.4167 10.2596 33.7171 8.77061V8.77061ZM34.7543 16.1845C36.1941 15.2073 38.5317 13.4082 39.9559 11.9967V17.8131C38.8413 19.1624 32.4322 26.3592 29.7695 28.8098C25.2337 32.982 22.184 32.3616 23.3605 27.9878C24.0726 25.3976 25.0789 22.8849 26.3638 20.5273C27.8964 19.9224 31.7666 18.2318 34.7543 16.1845Z" fill="#005BAA"/>
</svg>
