<svg width="40" height="40" viewBox="0 0 40 40" fill="none" xmlns="http://www.w3.org/2000/svg">
<rect width="40" height="40" fill="#1EAAA2"/>
<path d="M23.6639 22.7162H11.9301L24.6059 9.9537C24.7612 9.79687 24.8475 9.58383 24.845 9.36289V7.58308C24.845 7.06723 24.2261 6.80092 23.8627 7.17572L7.22144 23.9373C6.75046 24.4028 7.0809 25.2101 7.74123 25.2101H22.2436C22.4626 25.2082 22.6727 25.1219 22.8295 24.9685L24.0767 23.7129C24.3035 23.4816 24.2996 23.1107 24.0688 22.8839C23.9603 22.7779 23.8153 22.7177 23.6639 22.7162Z" fill="#FFCA8C"/>
<path d="M29.4201 7.2755L15.2407 21.5594H18.7421L28.2064 12.0296V28.5046H11.8458L13.96 26.3746H10.4585L7.27911 29.5772C6.75834 30.1015 7.13067 31 7.86548 31H29.6183C30.2121 30.999 30.6929 30.5167 30.6919 29.9229C30.6919 29.9215 30.6919 29.92 30.6919 29.9185V7.80762C30.6835 7.13396 29.8822 6.80107 29.4201 7.2755Z" fill="white"/>
</svg>
