<svg width="40" height="40" viewBox="0 0 40 40" fill="none" xmlns="http://www.w3.org/2000/svg">
<circle cx="20" cy="20" r="20" fill="#CDFB68"/>
<path fill-rule="evenodd" clip-rule="evenodd" d="M5 20.4976C5 12.4976 11.7051 6.00946 19.9793 6V11.2387C14.6951 11.2458 10.4181 15.3891 10.4181 20.4976C10.4181 25.6063 14.7072 29.7612 20.0012 29.7612C25.2952 29.7612 29.5796 25.6536 29.5796 20.4645L35 20.4693C35 28.5072 28.2877 35 20.0012 35C11.7148 35 5 28.5048 5 20.4976ZM13.381 20.4974C13.381 16.9458 16.3637 14.0662 20.0349 14.0662C23.7062 14.0662 26.6914 16.9458 26.6914 20.4974C26.6914 24.0491 23.7086 26.9287 20.0349 26.9287C16.3612 26.9287 13.381 24.0515 13.381 20.4974ZM28.4624 8.66466C26.3579 8.66466 24.65 10.3139 24.65 12.3512C24.65 14.3861 26.3555 16.04 28.4624 16.04C30.5693 16.04 32.2772 14.3885 32.2772 12.3512C32.2772 10.3139 30.5668 8.66466 28.4624 8.66466Z" fill="#222222"/>
</svg>
