<svg width="41" height="41" viewBox="0 0 41 41" fill="none" xmlns="http://www.w3.org/2000/svg">
<path fill-rule="evenodd" clip-rule="evenodd" d="M5.68296 17.9035C8.46177 17.9035 10.4987 15.9912 10.4987 13.2196C10.4987 10.4479 8.46304 8.53559 5.68296 8.53559C2.90416 8.53559 0.867192 10.4479 0.867192 13.2196C0.867192 15.9912 2.90293 17.9035 5.68296 17.9035ZM24.4516 17.9035C27.2304 17.9035 29.2673 15.9912 29.2673 13.2196C29.2673 10.4479 27.2304 8.53559 24.4516 8.53559C21.6728 8.53559 19.6358 10.4479 19.6358 13.2196C19.6358 15.9912 21.6728 17.9035 24.4516 17.9035ZM39.0654 17.5991V12.1937C39.0654 9.58852 37.6613 8.53559 35.7639 8.53418C34.4981 8.53418 33.5066 9.1444 32.9288 10.1421H32.8737V8.81149H30.5613V17.5991H32.9006V13.2748C32.9006 11.3615 33.7538 10.6967 34.9376 10.6967C36.065 10.6967 36.726 11.2802 36.726 12.6931V17.5991H39.0654ZM11.352 10.8079V8.81149H18.8376V10.6685L14.132 15.6027H19.058V17.5991H11.2418V15.7139L15.9474 10.8079H11.352ZM5.68296 15.7421C4.25195 15.7421 3.31669 14.7434 3.31669 13.2196C3.31669 11.6944 4.25195 10.6967 5.68296 10.6967C7.11398 10.6967 8.04924 11.6944 8.04924 13.2196C8.04924 14.7448 7.11398 15.7421 5.68296 15.7421ZM24.4516 15.7421C23.0206 15.7421 22.0853 14.7434 22.0853 13.2196C22.0853 11.6944 23.0206 10.6967 24.4516 10.6967C25.8826 10.6967 26.8178 11.6944 26.8178 13.2196C26.8178 14.7448 25.8826 15.7421 24.4516 15.7421ZM30.7643 31.8344V23.0841H28.4236V26.2576H24.6784V23.0841H22.3377V31.8344H24.6784V28.3009H28.4236V31.8344H30.7643ZM18.3759 24.3534V23.0841H20.7166V31.8344H18.3759V30.6471H18.3212C17.8532 31.4748 16.8343 32.1378 15.4026 32.1378C13.0619 32.1378 11.2443 30.4546 11.2443 27.445C11.2443 24.4639 13.1172 22.8078 15.4026 22.8078C16.8061 22.8078 17.9085 23.4708 18.3212 24.3534H18.3759ZM3.0557 24.7131C3.63381 23.6647 4.73486 23.0017 6.16658 23.0017C8.47897 23.0017 10.3786 24.7131 10.3786 27.445C10.3786 30.1783 8.28665 32.1378 5.56032 32.1378C2.80708 32.1378 0.687012 30.1783 0.687012 26.5072C0.687012 22.3669 1.81622 19.7715 5.61549 19.4682L9.49798 19.1648V21.4005L6.00127 21.732C3.74405 21.953 3.08263 22.7807 3.00059 24.7131H3.0557ZM13.6963 27.5003C13.6963 28.9639 14.6036 30.0126 16.0087 30.0126C17.4123 30.0126 18.3759 28.9357 18.3759 27.4721C18.3759 25.9814 17.4123 24.933 16.0087 24.933C14.6052 24.933 13.6963 26.0099 13.6963 27.5003ZM3.13651 27.4735C3.13651 28.991 4.18372 30.0126 5.53217 30.0126C6.88189 30.0126 7.92783 28.991 7.92783 27.4735C7.92783 25.9275 6.88189 25.0164 5.53217 25.0164C4.18249 25.0164 3.13651 25.9275 3.13651 27.4735ZM34.5475 27.6393L37.7131 31.8344L40.687 31.8334L36.7776 27.0583L40.3577 23.0841H37.4661L34.5475 26.7V23.0841H32.2068V31.8344H34.5475V27.6393Z" fill="#005BFF"/>
</svg>
