<svg width="40" height="40" viewBox="0 0 40 40" fill="none" xmlns="http://www.w3.org/2000/svg">
<path d="M0 0H40V40H0V0Z" fill="#DD002E"/>
<path d="M7 9.79999V30.2H10.7V13H15.2V30.2H18.9V9.79999H7ZM33.9 23.3C33.8 21 33 16.5 27.2 16.5L27.1 16.4H25.4V13.1H31.9V9.79999H21.9V30.2H27.5C28.4 30.2 29.3 30 30.1 29.7C30.9 29.4 31.6 28.8 32.2 28.2C32.8 27.5 33.3 26.8 33.6 25.9C33.9 25.1 34 24.2 33.9 23.3V23.3ZM26.7 26.9C26.3 26.9 25.4 26.7 25.4 26.7V19.5H26.1C28 19.5 30.1 19.3 30.1 23.1C30.1 26.7 27.8 26.9 26.7 26.9V26.9Z" fill="white"/>
</svg>
