<svg width="41" height="41" viewBox="0 0 41 41" fill="none" xmlns="http://www.w3.org/2000/svg">
<path d="M40.687 32.8746C40.687 37.7346 37.987 40.4346 33.127 40.4346H8.24701C3.38701 40.4346 0.687012 37.7346 0.687012 32.8746V7.99457C0.687012 3.13457 3.38701 0.43457 8.24701 0.43457H33.137C37.987 0.43457 40.687 3.13457 40.687 7.99457V32.8746Z" fill="#FFE600"/>
<path d="M26.4065 18.484V14.664L27.7865 13.284V16.594L28.9865 17.794L33.8165 12.964L35.0065 14.154C34.9965 13.254 34.8165 10.644 32.6065 8.47399C30.2265 6.17399 27.6465 7.21399 26.7665 8.09399L21.9465 12.914L23.1765 14.144L20.6865 16.654L18.1965 14.164L19.4265 12.934L14.6065 8.11399C13.7265 7.23399 11.1465 6.19399 8.76646 8.49399C6.55646 10.664 6.37646 13.274 6.36646 14.174L7.55646 12.984L12.3865 17.814L13.5865 16.614V13.304L14.9665 14.684V18.504L16.9065 20.434L7.34646 29.994L11.1265 33.764L20.6865 24.214L30.2465 33.774L34.0265 30.004L24.4665 20.434L26.4065 18.484Z" fill="#2B2D34"/>
</svg>
