<svg width="40" height="40" viewBox="0 0 40 40" fill="none" xmlns="http://www.w3.org/2000/svg">
<path d="M29.0667 40H10.9332C4.44469 40 0 35.5533 0 29.0668V10.9333C0 4.44787 4.44775 0 10.9332 0H29.0667C35.5522 0 39.9999 4.44481 39.9999 10.9333V29.0668C39.9999 35.5553 35.5552 40 29.0667 40Z" fill="#F3720C"/>
<path d="M31.7665 8.2241C31.8949 8.35277 32 8.55875 32 8.68192C32 8.8051 30.692 12.0555 29.0932 15.9049C27.4944 19.7544 25.2842 25.0884 24.1817 27.7583C23.0273 30.5536 22.0755 32.6994 21.9377 32.8173C21.4107 33.2684 20.8796 32.8568 20.734 31.8843C20.6064 31.0312 19.9273 29.059 19.3878 27.9738C17.8213 24.8234 15.2723 22.257 12.14 20.6768C10.9534 20.0781 9.98139 19.7243 8.60937 19.3915C7.07492 19.0193 6.70465 18.6684 7.21598 18.0707C7.32842 17.9394 8.65514 17.3268 10.1644 16.7096C11.6736 16.0923 13.1449 15.4844 13.4339 15.3589C14.2135 15.0201 22.1456 11.7245 24.702 10.6771C25.9222 10.1773 27.8664 9.37264 29.0224 8.8892C30.1784 8.40575 31.2163 8.00571 31.3286 8.00021C31.4409 7.99472 31.638 8.09543 31.7665 8.2241Z" fill="#D9D9D9"/>
</svg>
