<svg width="41" height="41" viewBox="0 0 41 41" fill="none" xmlns="http://www.w3.org/2000/svg">
<path d="M31.2346 0.0341797L9.68701 2.87799V9.31989L31.2346 7.37723V0.0341797Z" fill="#E4003A"/>
<path d="M22.9968 13.0107C19.4838 13.0107 16.6286 15.1746 15.9207 16.0704V13.4738H9.68701V40.0346H15.8816V30.5874C16.6089 31.5027 19.4443 33.6275 22.9771 33.6275C28.8395 33.6275 32.068 30.451 32.068 23.304C32.068 16.1569 28.8438 13.0107 22.9968 13.0107ZM20.7777 28.482C17.0867 28.482 15.925 27.1426 15.925 23.2888C15.925 19.4351 17.078 18.0957 20.7777 18.0957C24.4773 18.0957 25.6086 19.4156 25.6086 23.2888C25.6086 27.162 24.4947 28.4733 20.7777 28.4733V28.482Z" fill="#00274F"/>
</svg>
