<svg width="41" height="41" viewBox="0 0 41 41" fill="none" xmlns="http://www.w3.org/2000/svg">
<path fill-rule="evenodd" clip-rule="evenodd" d="M14.8825 23.0096L18.8114 19.1607V16.5385L14.8825 20.3785V23.0096ZM14.8825 13.2496L18.8114 9.3829V6.92067L14.8825 10.7518V13.2407V13.2496ZM14.8825 16.4763L18.8114 12.6274V10.1562L14.8825 13.9963V16.4763ZM13.7625 6.94734L13.2292 6.44956V0.333984H12.6425V5.86289L12.127 5.35622V0.333984H11.5314V4.77844L11.007 4.26289V0.333984H10.4203V6.16512L14.367 10.014V0.333984H13.7714V6.94734H13.7625ZM14.8825 19.7029L18.8114 15.854V13.3829L14.8825 17.2229V19.7029ZM10.4114 19.1607L14.3581 23.0096V20.3785L10.4114 16.5385V19.1607ZM18.2248 4.26289L17.7003 4.77844V0.333984H17.1137V5.36511L16.5803 5.86289V0.333984H15.9937V6.44067L15.4781 6.94734V0.333984H14.8825V10.0229L18.8114 6.16512V0.333984H18.2248V4.26289ZM10.4114 9.3829L14.3581 13.2496V10.7607L10.4114 6.91178V9.37402V9.3829ZM10.4114 12.6274L14.3581 16.4763V13.9874L10.4114 10.1651V12.6274ZM10.4114 15.854L14.3581 19.7029V17.2229L10.4114 13.3918V15.854ZM33.8515 17.8896H24.287C24.4958 17.5664 24.6069 17.1899 24.607 16.8052C24.6022 15.6819 23.6592 14.747 22.5359 14.7518C21.4194 14.7566 20.4874 15.6887 20.4826 16.8052C20.4826 17.2496 20.6248 17.6585 20.8648 17.9963C20.6858 18.1153 20.5732 18.3236 20.5714 18.5385C20.5714 18.7696 20.6959 18.974 20.8648 19.0896C20.6171 19.4375 20.4836 19.8537 20.4826 20.2807C20.4826 21.3991 21.4175 22.3341 22.5359 22.3341C23.6592 22.3389 24.6022 21.404 24.607 20.2807C24.607 19.8807 24.4915 19.5074 24.287 19.1963H31.407V19.6318H30.6959V20.2363H31.407V20.8585H30.6959V22.0141H31.407V21.4985H32.447V22.0141H33.1493V20.8585H32.447V20.2363H33.1493V19.6318H32.447V19.1874H33.8515C34.1226 19.1874 34.3493 18.9607 34.3493 18.6896V18.3874C34.3446 18.1181 34.1207 17.8943 33.8515 17.8896ZM23.6026 20.2896C23.6026 20.8706 23.1169 21.3563 22.5359 21.3563C21.9549 21.3563 21.4692 20.8706 21.4692 20.2896C21.4692 19.8814 21.7468 19.5387 21.9492 19.2052C21.7568 19.0409 21.6438 18.7915 21.647 18.5385C21.647 18.2718 21.7626 18.0407 21.9403 17.8807C21.7489 17.5457 21.4717 17.1988 21.4781 16.7963C21.4781 16.2153 21.9638 15.7296 22.5448 15.7296C23.1258 15.7296 23.6115 16.2153 23.6115 16.7963C23.6115 17.2318 23.1137 18.2629 23.1137 18.2629V18.814C23.1048 18.8229 23.6026 19.8541 23.6026 20.2896ZM6.83807 16.6363V19.2052C6.83807 21.6496 7.90474 23.2318 8.52696 23.8363L12.5981 27.8363C13.7359 28.9474 13.9314 29.3119 14.1892 29.943V27.0985C14.1892 24.7835 13.1128 23.7692 12.4201 23.1164C11.2099 21.976 10.0226 20.8075 8.84696 19.6318C7.95755 18.7997 7.27038 17.775 6.83807 16.6363ZM8.84696 25.9785C8.01989 25.229 7.3414 24.3303 6.84696 23.3296V25.543C6.82039 27.2485 7.41784 28.9049 8.52696 30.2008L12.5981 34.1741C13.696 35.2463 13.9166 35.7805 14.1623 36.3757L14.1892 36.4408V33.4452C14.1892 31.126 13.109 30.1105 12.4217 29.4644L12.4213 29.464L12.4203 29.463C11.2124 28.3271 10.0201 27.1517 8.84696 25.9785ZM20.35 5.08053C20.0683 5.08053 19.7866 5.0807 19.5048 5.09831V6.28942C26.2899 5.76907 32.8584 9.63153 35.7021 15.8138C36.6339 17.8397 37.144 20.0339 37.2014 22.263C37.3164 26.7352 35.5562 31.146 32.3938 34.3103C29.2313 37.4747 24.8216 39.2374 20.3493 39.1251C15.9895 39.1298 11.8062 37.403 8.71921 34.3243C5.63219 31.2456 3.89409 27.0671 3.88702 22.7073C3.88702 17.6672 6.15369 13.1694 9.73593 10.1472V8.61832C7.54621 10.2567 5.76887 12.3833 4.54521 14.8291C3.32154 17.2749 2.68529 19.9724 2.68702 22.7073C2.68702 32.4406 10.5982 40.334 20.3582 40.334C25.0363 40.3363 29.5238 38.4809 32.8342 35.1755C36.1446 31.8701 38.0069 27.3853 38.0116 22.7073C38.0116 12.9741 30.1008 5.08093 20.35 5.08053ZM33.6204 30.7606C33.3804 31.1606 33.1138 31.5517 32.8471 31.9162V28.3962H33.6204V30.7606ZM35.1792 27.297C35.1546 27.3782 35.1297 27.46 35.1049 27.5428C34.6782 27.1073 33.9138 27.1162 33.2293 27.1339H32.8471V26.5117H35.4071C35.3389 26.7708 35.2603 27.0299 35.1792 27.297ZM17.3537 26.4139H18.0471V26.4228V33.4451H17.3537V26.4139ZM15.7536 25.071H18.047C18.6425 25.071 19.0603 25.1955 19.2914 25.4266C19.5314 25.6488 19.647 26.0666 19.647 26.6532V33.231C19.647 33.8177 19.5403 34.2266 19.2914 34.4577C18.9359 34.8222 18.2603 34.8222 17.7092 34.8222L17.3537 34.8133V37.9244L18.047 38.0488V35.4888C19.1137 35.4888 19.7981 35.1333 20.127 34.4044V38.2177H20.3581L20.8025 38.2088V26.7688C20.8025 26.1643 20.9181 25.7377 21.1581 25.4977C21.3803 25.2577 21.7981 25.1421 22.3759 25.1421C22.4576 25.1421 22.5446 25.1404 22.6349 25.1387C23.2027 25.1278 23.9048 25.1142 24.2959 25.4977C24.527 25.7377 24.6337 26.1732 24.6337 26.7688V30.1466H23.0603V26.5377H22.3759V38.0844C22.607 38.0577 22.8203 38.0222 23.0603 37.9777V30.8221H24.6337V37.6133C24.9537 37.5244 25.2737 37.4266 25.5937 37.3111V31.0888C25.5937 30.3777 25.7626 29.8444 26.4826 29.6044L25.6826 25.2755H27.2826L27.5492 29.9955H27.7448L28.0115 25.2755H29.6826L28.7848 29.6044C29.5315 29.871 29.6826 30.3244 29.6826 31.0799V35.1066C30.1489 34.7569 30.5941 34.38 31.0159 33.9777V25.2399H35.6826L35.7715 24.5999H24.847L24.9981 25.391C24.6603 24.751 24.0026 24.431 23.0426 24.431H22.3581C21.2026 24.431 20.4914 24.8932 20.2248 25.8088C19.9848 24.8488 19.247 24.3688 18.0381 24.3688H15.0514V37.2755C15.2825 37.3555 15.5136 37.4355 15.7448 37.4977V25.0799L15.7536 25.071ZM30.2337 30.031L29.4781 29.3199L30.2337 25.4355V30.031ZM27.3954 36.528C27.3547 36.549 27.3141 36.57 27.2737 36.5909V36.582V30.8931H27.9848V36.2087C27.8 36.3196 27.5967 36.4243 27.3954 36.528Z" fill="#42AB44"/>
</svg>
