<svg width="40" height="40" viewBox="0 0 40 40" fill="none" xmlns="http://www.w3.org/2000/svg">
<rect width="40" height="40" fill="#414042"/>
<path fill-rule="evenodd" clip-rule="evenodd" d="M11.1224 6.71974C13.7621 4.95991 16.8018 4 20.0015 4C24.2411 4 28.3207 5.67984 31.2804 8.71955C34.3202 11.6793 36 15.7589 36 19.9985C36 23.1982 35.0401 26.2379 33.3603 28.8776C31.6004 31.5174 29.1207 33.5972 26.1609 34.7971C23.2012 35.997 19.9215 36.3169 16.8818 35.677C13.8421 35.0371 10.9624 33.5172 8.72258 31.2774C6.48279 29.0376 4.96294 26.2379 4.323 23.1182C3.68306 19.9985 4.00303 16.7988 5.20291 13.9191C6.4028 10.9593 8.4826 8.47958 11.1224 6.71974ZM12.0823 31.9174C14.402 33.4372 17.2018 34.3171 20.0015 34.3171C23.7612 34.3171 27.4408 32.8773 30.0806 30.1575C32.8003 27.5178 34.3202 23.8381 34.3202 20.0785C34.3202 17.1988 33.5202 14.399 31.9204 12.0792C30.4005 9.75946 28.0808 7.83964 25.521 6.79974C22.9612 5.75983 20.0815 5.43986 17.2818 5.99981C14.482 6.55976 11.9223 7.91963 9.92247 9.91944C7.92266 11.9193 6.56278 14.399 6.00284 17.2787C5.44289 19.9985 5.68287 22.9582 6.80276 25.518C7.92266 28.0777 9.76248 30.3175 12.0823 31.9174ZM24.2409 30.9575C24.6409 29.7576 24.8809 27.1178 23.521 25.678C24.3209 27.2778 24.001 29.9176 21.9212 31.7574C22.3211 31.6774 23.281 31.4374 24.001 31.1974C24.081 31.1974 24.1609 31.1974 24.1609 31.1174C24.2409 31.0374 24.2409 31.0374 24.2409 30.9575ZM25.1209 21.0384C27.2807 21.5183 29.3605 22.5582 31.0403 23.9981C31.0803 23.9981 31.1003 24.0181 31.1203 24.0381C31.1403 24.0581 31.1603 24.0781 31.2003 24.0781V24.2381C30.9603 24.878 30.6403 25.518 30.2404 26.1579C29.1205 23.9181 27.3606 22.1583 25.1209 21.0384ZM31.8402 19.9185C31.9202 19.9185 31.9202 19.9985 31.9202 20.0785C31.9202 20.3984 31.9202 20.7184 32.0002 21.0384C30.8803 20.1585 29.6004 19.4385 28.2406 18.8786C28.9605 18.8786 29.7604 18.7186 30.4803 18.3986C30.427 18.5586 30.3737 18.6475 30.3204 18.7364L30.3204 18.7364C30.2937 18.7808 30.267 18.8253 30.2404 18.8786C30.1604 19.0386 30.0004 19.1186 29.8404 19.1986C30.1604 19.3186 30.5004 19.4385 30.8403 19.5585C31.1803 19.6785 31.5203 19.7985 31.8402 19.9185ZM25.4409 24.3184C25.9209 24.4784 26.4008 24.4784 26.8808 24.3184C26.1777 24.1426 25.5819 23.6557 24.889 23.0894C23.69 22.1096 22.2005 20.8922 19.3615 20.6387C19.3438 20.6387 19.3223 20.6397 19.2982 20.6408H19.2982C19.1042 20.6496 18.7481 20.6657 18.9616 20.2388C19.6015 19.5988 20.2414 19.0389 20.9614 18.5589C20.8103 18.5589 20.3918 18.5946 19.9499 18.6323C19.4559 18.6743 18.9327 18.7189 18.7216 18.7189C18.3216 18.7189 18.1616 18.6389 18.1616 18.319C18.1616 18.319 17.2817 19.1189 17.6817 19.5988C17.7617 19.6788 17.9216 19.6788 18.1616 19.5988C18.2816 19.5589 18.4215 19.5189 18.5615 19.4789L18.5616 19.4788L18.5616 19.4788C18.7016 19.4388 18.8416 19.3989 18.9616 19.3589H19.0415V19.4389L18.5616 20.1588L18.55 20.1931C18.4752 20.4141 18.4248 20.5626 18.8816 20.6387C20.1614 21.0387 21.4413 21.5986 22.6412 22.3186C23.9211 23.1185 24.961 24.1584 25.6809 25.5183C26.4008 26.7982 26.7208 28.318 26.7208 29.7579C27.2808 29.3579 27.9207 28.878 28.4007 28.398C28.4807 28.318 28.4807 28.158 28.4807 28.158C27.8407 26.6382 26.8008 25.2783 25.4409 24.3184ZM28.5605 13.5198C28.8805 13.6798 30.1604 14.4797 30.4004 14.6397C30.5603 14.7197 30.3204 15.1196 29.9204 15.3596C29.8404 15.5996 29.7604 15.8396 29.6004 15.9995C29.4404 16.1595 29.2805 16.3195 29.0405 16.3995C28.8005 16.4795 28.5605 16.4795 28.3206 16.3995L28.0006 16.7195C27.8406 16.7995 27.7606 16.7995 27.8406 16.6395C27.8406 16.5595 27.8406 16.3995 27.7606 16.3195C27.6326 16.1915 27.5046 16.2683 27.3766 16.3451C27.3446 16.3643 27.3127 16.3835 27.2807 16.3995C27.1207 16.4795 27.0407 16.2395 27.0407 16.2395C26.8007 16.1595 26.5607 16.1595 26.3207 16.2395C26.0808 16.2395 25.8408 16.3995 25.6808 16.5595C25.9208 16.5595 26.1608 16.6395 26.3207 16.7995C26.4807 16.8795 26.6407 17.0394 26.7207 17.2794C26.8007 17.5194 27.2007 17.5194 27.3606 17.3594C27.3606 17.2794 27.5206 17.2794 27.5206 17.4394C27.5206 17.5194 27.5206 17.6794 27.4406 17.7594C27.5297 17.8262 27.6065 17.8744 27.6673 17.9127C27.8249 18.0118 27.876 18.0439 27.7606 18.1593C27.4406 18.7993 27.1207 18.7193 26.9607 18.6393C25.8408 18.2393 24.6409 17.9993 23.441 17.9194L23.921 17.4394C18.3215 17.4394 17.3616 18.0793 17.0416 18.4793C16.9616 18.5593 16.9616 18.7193 16.9616 18.7993C16.9616 18.8793 16.9616 19.0392 17.0416 19.1192C15.9217 19.1992 14.8818 19.5992 13.9219 20.1591C13.282 20.7991 13.202 22.159 13.202 22.6389C13.2858 22.576 13.3697 22.5076 13.455 22.4381C13.6952 22.2422 13.9467 22.037 14.2419 21.919C15.1218 21.599 16.0817 21.519 17.0416 21.679C17.2816 21.599 17.4416 21.679 17.6016 21.759C17.6816 21.839 17.8415 21.999 17.9215 22.159C18.0015 22.4789 17.6816 22.4789 17.5216 22.3189C16.9969 21.9691 16.6634 22.1452 16.299 22.3375C15.9968 22.497 15.6733 22.6677 15.2018 22.5589C15.3618 22.7189 15.5218 22.7989 15.6817 22.8789L15.6817 22.8789C15.8417 22.9589 16.0817 22.9589 16.2417 22.8789C17.2816 22.5589 17.5216 22.8789 17.6016 23.0389C16.8016 23.0389 16.0817 23.1989 15.3618 23.5188L14.0819 23.6788C14.2419 23.8388 14.4819 23.9988 14.7218 24.0788C14.9618 24.1588 15.2818 24.1588 15.5218 24.1588C16.4817 24.0788 17.3616 24.0788 18.3215 24.1588C20.4813 24.3987 20.6413 26.3986 19.3614 27.6784C19.6814 27.5984 20.0013 27.4385 20.2413 27.1985C20.4813 26.9585 20.6413 26.7185 20.8013 26.3986C21.6012 29.7582 18.4015 31.5981 15.8417 31.1181C14.8018 30.8781 13.7619 30.3982 12.882 29.7582C12.4821 29.4383 12.0821 29.1183 11.7621 28.7983C13.7619 29.2783 15.8417 29.1983 17.7616 28.4784C15.2018 28.6383 12.722 27.9984 10.4822 26.7985C10.0023 26.6385 9.68231 26.3186 9.44234 25.9186C8.96238 25.0387 8.56242 24.0788 8.32244 23.0389C9.68231 24.1588 12.4021 25.6786 13.7619 25.8386C11.5221 24.5587 9.60232 22.7189 8.32244 20.4791C8.08247 20.1591 7.92248 19.6792 7.92248 19.2792C8.00247 18.2393 8.24245 17.1994 8.56242 16.2395C9.04237 17.4394 10.0023 19.5992 11.2822 20.6391C10.4022 18.5593 9.92229 16.3195 9.92229 13.9997C9.92229 13.6798 10.0823 13.4398 10.2423 13.1998C10.7222 12.4799 11.3622 11.7599 12.0021 11.2C11.7621 12.7998 11.6821 14.3997 12.0021 15.9195C12.3221 13.7597 13.122 11.6799 14.3219 9.84012C14.3607 9.8013 14.3995 9.75777 14.4395 9.71296C14.5642 9.5731 14.7001 9.42075 14.8818 9.36016C15.6817 9.04019 16.4817 8.72022 17.2816 8.56024C16.4017 9.28017 15.6817 10.2401 15.2818 11.28C17.7042 8.91663 20.0394 8.29889 21.8682 7.81509C22.5154 7.64388 23.0992 7.48945 23.601 7.28036C24.001 7.04038 24.1609 7.36035 24.1609 7.68032C24.1609 8.00029 24.001 8.48025 24.001 8.48025C24.6409 8.56024 25.2008 8.88021 25.6808 9.28017V8.88021C27.2007 10.2401 27.7606 11.36 27.6806 12.1599C27.6806 12.3999 27.7606 12.7198 27.9206 12.9598C28.0806 13.1998 28.3206 13.3598 28.5605 13.5198ZM20.4013 14.1597L19.6814 14.3997C19.8414 12.9598 20.5613 11.6 21.6012 10.64C19.9213 11.28 18.5615 13.8397 18.6415 15.3596C18.7077 15.3265 18.8152 15.2796 18.9411 15.2247C19.1191 15.1471 19.334 15.0534 19.5214 14.9596C19.3614 15.6796 19.2814 16.4795 19.3614 17.1994C19.8414 17.1194 20.4013 17.0394 20.8813 17.0394C20.0813 16.7195 20.0813 15.1196 20.6413 14.3197C20.8813 14.0797 20.6413 14.0797 20.4013 14.1597ZM23.1039 8.44455C23.1735 8.3415 23.2385 8.24525 23.281 8.16028C23.441 8.08028 23.361 7.9203 23.121 8.08028C22.5611 8.48025 22.0811 8.9602 21.8412 9.52015C21.7612 9.68013 21.8412 9.84012 22.0012 9.68013C22.1949 9.55096 22.4408 9.47393 22.6547 9.40695C22.7057 9.39097 22.7549 9.37557 22.8011 9.36016C22.6836 9.06642 22.9113 8.72952 23.1039 8.44455ZM26.8611 12.6199C26.8671 12.6011 26.8736 12.5811 26.8807 12.5599C27.0407 12.2399 27.0407 11.8399 26.8007 11.52C26.7207 12.3199 26.4807 12.3199 26.3207 12.2399C25.9208 12.0799 25.4408 11.9999 25.0409 12.0799C25.5208 12.4799 25.8408 13.0398 26.1608 13.5998C26.2408 13.2798 26.1608 12.9598 26.0008 12.7198C26.0008 12.6424 26.0008 12.6025 26.0189 12.5909C26.0382 12.5786 26.0782 12.5986 26.1608 12.6399C26.2309 12.6749 26.301 12.6946 26.3645 12.7124C26.4457 12.7352 26.5158 12.7549 26.5607 12.7998C26.7794 12.8727 26.7988 12.8128 26.8611 12.6199Z" fill="white"/>
</svg>
