<svg width="41" height="41" viewBox="0 0 41 41" fill="none" xmlns="http://www.w3.org/2000/svg">
<path d="M36.0387 8.50488C36.9762 9.73323 37.7698 11.0677 38.4035 12.4816L20.4268 25.9116L12.9138 21.1386V15.3965L20.4268 20.1695L36.0387 8.50488Z" fill="#21A038"/>
<path d="M5.24628 20.7335C5.24628 20.4758 5.25248 20.2199 5.26488 19.9654L0.711809 19.7393C0.696311 20.0691 0.687017 20.4021 0.687017 20.7381C0.68508 23.3639 1.1947 25.9641 2.18666 28.3897C3.1786 30.8155 4.63335 33.0188 6.46746 34.8733L9.69706 31.6018C8.28524 30.1768 7.16523 28.4829 6.40141 26.6178C5.63759 24.7526 5.24503 22.7528 5.24628 20.7335Z" fill="url(#paint0_linear_61_908)"/>
<path d="M20.4228 5.3548C20.6769 5.3548 20.9294 5.36423 21.1805 5.37679L21.4083 0.760877C21.0819 0.745171 20.7533 0.73732 20.4228 0.73732C17.8306 0.734116 15.2635 1.24985 12.8687 2.2549C10.4738 3.25996 8.29849 4.73455 6.46753 6.59399L9.69714 9.86706C11.1033 8.43576 12.7748 7.30027 14.6155 6.5259C16.4562 5.75153 18.4297 5.35353 20.4228 5.3548Z" fill="url(#paint1_linear_61_908)"/>
<path d="M20.4227 36.1142C20.1685 36.1142 19.9159 36.1142 19.6634 36.0937L19.4355 40.7081C19.763 40.7248 20.0921 40.7333 20.4227 40.7333C23.0137 40.7359 25.5796 40.2199 27.9732 39.2145C30.3667 38.2092 32.5407 36.7344 34.3702 34.875L31.1468 31.6035C29.7404 33.0341 28.069 34.1689 26.2287 34.943C24.3884 35.7171 22.4152 36.1151 20.4227 36.1142Z" fill="url(#paint2_linear_61_908)"/>
<path d="M28.9775 8.03757L32.8145 5.17127C29.3074 2.29313 24.9296 0.726386 20.4167 0.734406V5.35345C23.4726 5.34961 26.4576 6.28554 28.9775 8.03757Z" fill="url(#paint3_linear_61_908)"/>
<path d="M40.157 20.7344C40.1594 19.5328 40.0557 18.3333 39.847 17.1504L35.5993 20.3229C35.5993 20.4597 35.5993 20.5963 35.5993 20.7344C35.6004 22.8834 35.1559 25.0087 34.2947 26.9724C33.4334 28.9361 32.1746 30.6945 30.5999 32.1336L33.6637 35.5654C35.7109 33.6923 37.3469 31.4042 38.4655 28.8493C39.5842 26.2943 40.1604 23.5296 40.157 20.7344Z" fill="#21A038"/>
<path d="M20.4228 36.1145C18.3022 36.1153 16.2051 35.6646 14.2671 34.7919C12.3293 33.9191 10.5939 32.6435 9.17339 31.0479L5.78882 34.1513C7.63679 36.2264 9.89449 37.8847 12.4155 39.0187C14.9366 40.1525 17.6646 40.7368 20.4228 40.7335V36.1145Z" fill="url(#paint4_linear_61_908)"/>
<path d="M10.2457 9.33404L7.18344 5.90234C5.1356 7.77505 3.49903 10.0631 2.37986 12.618C1.26071 15.173 0.683961 17.9378 0.687024 20.7332H5.24629C5.24535 18.5844 5.68991 16.4591 6.55113 14.4954C7.41236 12.5317 8.67106 10.7733 10.2457 9.33404Z" fill="url(#paint5_linear_61_908)"/>
<defs>
<linearGradient id="paint0_linear_61_908" x1="7.38954" y1="34.2969" x2="2.28856" y2="19.7468" gradientUnits="userSpaceOnUse">
<stop offset="0.14" stop-color="#F1E813"/>
<stop offset="0.3" stop-color="#E6E418"/>
<stop offset="0.58" stop-color="#C9DA26"/>
<stop offset="0.89" stop-color="#A2CC39"/>
</linearGradient>
<linearGradient id="paint1_linear_61_908" x1="7.76928" y1="7.41069" x2="20.6424" y2="2.57005" gradientUnits="userSpaceOnUse">
<stop offset="0.06" stop-color="#0FA7DF"/>
<stop offset="0.54" stop-color="#0098F8"/>
<stop offset="0.92" stop-color="#0290EA"/>
</linearGradient>
<linearGradient id="paint2_linear_61_908" x1="19.135" y1="37.9454" x2="33.6619" y2="34.7072" gradientUnits="userSpaceOnUse">
<stop offset="0.12" stop-color="#A2CC39"/>
<stop offset="0.28" stop-color="#86C239"/>
<stop offset="0.87" stop-color="#219F38"/>
</linearGradient>
<linearGradient id="paint3_linear_61_908" x1="19.4684" y1="2.28142" x2="31.9008" y2="6.06707" gradientUnits="userSpaceOnUse">
<stop offset="0.06" stop-color="#0290EA"/>
<stop offset="0.79" stop-color="#0C89CA"/>
</linearGradient>
<linearGradient id="paint4_linear_61_908" x1="6.9325" y1="33.589" x2="20.4775" y2="38.584" gradientUnits="userSpaceOnUse">
<stop offset="0.13" stop-color="#F1E813"/>
<stop offset="0.3" stop-color="#EAE616"/>
<stop offset="0.53" stop-color="#D8DF1F"/>
<stop offset="0.8" stop-color="#BAD52D"/>
<stop offset="0.98" stop-color="#A2CC39"/>
</linearGradient>
<linearGradient id="paint5_linear_61_908" x1="2.38551" y1="21.2923" x2="7.93237" y2="7.05456" gradientUnits="userSpaceOnUse">
<stop offset="0.07" stop-color="#A2CC39"/>
<stop offset="0.26" stop-color="#81C45E"/>
<stop offset="0.92" stop-color="#0FA7DF"/>
</linearGradient>
</defs>
</svg>
