<svg width="40" height="40" viewBox="0 0 40 40" fill="none" xmlns="http://www.w3.org/2000/svg">
<path d="M34.8453 0.82381C21.8787 3.57797 12.2066 10.4966 13.2416 16.2749C13.5655 18.0786 14.8963 19.5575 16.9635 20.6556L16.9561 20.6872L16.9236 20.6524L16.9162 20.6872C11.3504 19.7473 7.20712 17.1663 5.93545 13.217C4.54696 8.89852 5.67816 4.10432 9.41037 0H0V39.9768C1.67831 39.7923 3.3921 39.5455 5.1547 39.1699C18.1198 36.4147 27.7934 29.4972 26.7569 23.7188C26.433 21.9161 25.1037 20.4363 23.032 19.337L23.0424 19.3054L23.0749 19.3423L23.0823 19.3065C28.6481 20.2474 32.7914 22.8285 34.0631 26.7767C35.4545 31.0973 34.3189 35.8915 30.5837 39.999H40V0.0158219C38.3217 0.201474 36.6079 0.449347 34.8453 0.82381Z" fill="#E40134"/>
</svg>
