<svg width="40" height="40" viewBox="0 0 40 40" fill="none" xmlns="http://www.w3.org/2000/svg">
<path d="M0 12.6H9.5C13.8 20 20 26.2 27.4 30.4V40C21 37.8 15.3 34.2 10.5 29.5C5.8 24.7 2.2 18.9 0 12.6ZM27.4 12.6H9.5C7.2 8.7 5.5 4.4 4.5 0H14.9C18.2 0 21.4 1.3 23.8 3.7C26.1 6 27.4 9.2 27.4 12.6V12.6ZM27.3 0C28 3.1 29.5 5.9 31.8 8.2C34 10.4 36.9 12 40 12.7V0H27.3Z" fill="#00AFAA"/>
<path d="M27.4 12.6V30.5C20 26.2 13.8 20 9.59998 12.6H27.4Z" fill="#00539B"/>
<path d="M40 25.2V35.6C35.6 34.5 31.4 32.9 27.4 30.6V12.6C30.7 12.6 33.9 13.9 36.3 16.3C38.7 18.7 40 21.8 40 25.2V25.2Z" fill="#F39A00"/>
</svg>
