<svg width="40" height="40" viewBox="0 0 40 40" fill="none" xmlns="http://www.w3.org/2000/svg">
<rect width="40" height="40" fill="#CC163F"/>
<path d="M31.9999 22.583C31.9898 21.7211 31.798 20.8709 31.4368 20.0882C31.0756 19.3055 30.5532 18.6078 29.9039 18.0408C30.1141 17.4678 30.2209 16.8619 30.2194 16.2515C30.2194 15.9164 30.1856 15.5858 30.1243 15.2675C29.6656 12.84 27.5377 11 24.9875 11H18.8026V22.3964C18.8026 24.5901 16.9271 26.3768 14.6213 26.3768C14.5487 26.3762 14.4761 26.3745 14.4035 26.3715C12.1991 26.2648 10.4391 24.5217 10.4391 22.3982V14.3644C10.4391 13.8329 10.8773 13.4009 11.4151 13.4009H13.8364C13.9953 13.4023 14.1529 13.3723 14.3003 13.3128C14.4476 13.2532 14.5817 13.1652 14.695 13.0537C14.8083 12.9423 14.8984 12.8096 14.9604 12.6632C15.0223 12.5169 15.0548 12.3598 15.056 12.2009C15.056 11.5387 14.5093 11.0009 13.8364 11.0009H11.416C9.53155 11.0009 8 12.5093 8 14.3644V15.4418H8.00089H8V22.3982L8.00089 22.4862C8.05333 25.9635 11.0009 28.7777 14.6222 28.7777C18.2728 28.7777 21.2435 25.9155 21.2435 22.3982V13.4H24.9883C25.0132 13.4 25.0372 13.4009 25.0595 13.4044C26.5661 13.4427 27.7794 14.7049 27.7794 16.2515C27.7829 16.8203 27.6157 17.377 27.2994 17.8497C26.9332 18.4151 27.0257 19.0373 27.5883 19.352C28.1858 19.6724 28.6849 20.1491 29.0325 20.7312C29.38 21.3133 29.5629 21.9789 29.5616 22.6568C29.5616 24.5706 28.1341 26.1501 26.3083 26.3555C26.1752 26.3694 26.0414 26.3765 25.9074 26.3768H21.9644C21.2924 26.3768 20.7466 26.9155 20.7466 27.5777C20.7466 28.2417 21.2924 28.7777 21.9644 28.7777H25.9066C29.2639 28.7777 31.9981 26.031 31.9981 22.6577C32.0007 22.6319 31.9999 22.6079 31.9999 22.583V22.583Z" fill="white"/>
</svg>
