<svg width="40" height="40" viewBox="0 0 40 40" fill="none" xmlns="http://www.w3.org/2000/svg">
<path d="M20.8187 10.3258C20.8354 10.3091 20.8354 10.2924 20.8521 10.2757C21.1696 9.82456 21.0359 9.49039 20.8187 9.3066C20.685 9.18964 17.594 7.3183 17.594 7.3183C17.3768 7.16792 17.2264 6.91729 17.2264 6.61654C17.2264 6.16541 17.4937 5.81454 18.1287 5.63074C20.117 5.07936 27.1345 4.79532 29.5071 4.79532C30.3258 4.79532 31.7627 4.79532 33.0326 4.82874L32.9825 4.77861C29.4904 1.80451 24.9457 0 20 0C8.95572 0 0 8.95572 0 20C0 24.8622 1.73768 29.3066 4.61153 32.7652C7.11779 29.1562 13.3333 20.2506 14.6867 18.4294C16.2573 16.3241 19.8329 11.6625 20.4344 10.8772L20.4678 10.8438L20.8187 10.3258V10.3258ZM7.80286 35.8563C11.178 38.4629 15.4052 40 20 40C31.0443 40 40 31.0443 40 20C40 16.6583 39.1813 13.5005 37.7277 10.7436C38.4127 10.0752 39.2147 9.02259 38.68 7.71934C38.513 7.33504 37.7444 6.43279 37.5439 6.21558L37.5773 6.29912C38.0618 7.76946 37.1095 8.68843 36.4077 9.30664C36.0234 9.65751 30.944 14.4361 24.9958 19.6492C19.7494 24.244 13.868 28.9056 10.4762 31.462C5.6976 35.0376 4.76193 35.5556 4.76193 35.5556C4.62826 35.6224 4.42776 35.6893 4.27738 35.6893C3.99334 35.6893 3.726 35.5556 3.57563 35.3551C3.54221 35.4219 3.54221 35.4721 3.55892 35.5055C4.07688 36.3409 4.92901 37.2933 5.41355 37.2933C5.56393 37.2933 5.78114 37.2264 5.91481 37.1596C5.8981 37.1429 6.28239 36.9424 7.80286 35.8563V35.8563Z" fill="#E2001A"/>
<path d="M20.8521 10.2757C21.1529 9.82453 21.0359 9.49036 20.8187 9.30657C20.685 9.18961 17.594 7.31826 17.594 7.31826C17.3768 7.16789 17.2264 6.91726 17.2264 6.61651C17.2264 6.14867 17.5104 5.8145 18.1286 5.63071C20.1169 5.07933 27.1345 4.79529 29.5071 4.79529C30.6266 4.79529 32.8655 4.79529 34.3191 4.87883C35.9565 4.97908 37.2097 5.32996 37.5271 6.11525C38.1286 7.66914 37.1261 8.63823 36.4077 9.28986C36.0234 9.64074 30.9607 14.4193 24.9958 19.6324C19.7494 24.2272 13.868 28.8889 10.4762 31.4452C5.69759 35.0209 4.76192 35.5388 4.76192 35.5388C4.62825 35.6056 4.42775 35.6725 4.26066 35.6725C3.75941 35.6725 3.37512 35.2882 3.37512 34.8036C3.37512 34.6198 3.42524 34.4361 3.52549 34.3024C3.52549 34.3024 12.949 20.7351 14.6533 18.4294C16.3743 16.1403 20.4845 10.7602 20.4845 10.7602C20.4845 10.7602 20.5514 10.7101 20.8521 10.2757V10.2757Z" fill="#FEFEFE"/>
</svg>
