<svg width="40" height="40" viewBox="0 0 40 40" fill="none" xmlns="http://www.w3.org/2000/svg">
<rect x="-0.000488281" width="40" height="40" fill="#2A426C"/>
<path d="M35.2779 22.9594H33.438C33.358 22.9594 33.278 23.1194 33.198 23.1994C32.0781 24.5594 30.3982 25.5993 28.0783 26.4793C25.9984 27.2792 23.6785 27.6792 21.0386 27.9192C18.3988 28.0792 15.7589 27.9192 13.279 27.3592C11.3591 26.9592 9.35924 26.3193 7.83932 25.3593C6.71937 24.7194 5.83942 24.0794 5.35944 23.3594C5.19945 23.1994 5.35944 23.1194 5.51943 23.1994C6.31939 23.9994 7.35934 24.7194 8.55928 25.2793C9.75922 25.8393 11.3591 26.3193 13.439 26.7193C14.959 26.9592 16.9589 27.1192 19.4387 26.9592C22.0786 26.7993 24.6385 26.1593 26.7184 25.1993C27.9183 24.6394 28.7983 24.0794 29.4382 23.4394C29.6782 23.1994 29.4382 22.8794 29.1982 22.7995H28.2383C26.5584 24.6394 22.8786 26.4793 16.8789 26.4793C10.7992 26.7193 4.3195 24.2394 4.39949 20.3996C4.47949 16.5598 10.5592 14.0799 16.4789 14.0799C22.3986 14.0799 26.3184 15.6798 28.3183 17.8397H29.2782C29.5182 17.7597 29.5982 17.4397 29.4382 17.1997C28.7983 16.5598 27.9183 15.9998 26.7184 15.4398C24.6385 14.4799 22.1586 13.8399 19.4387 13.6799C16.9589 13.5199 14.959 13.6799 13.439 13.9199C11.1991 14.3199 9.67922 14.7999 8.47929 15.3598C7.19935 15.9198 6.2394 16.7198 5.43944 17.5197C5.27945 17.5997 5.11946 17.5197 5.27945 17.3597C5.83942 16.7198 6.63938 15.9998 7.75932 15.3598C9.35924 14.3999 11.2791 13.7599 13.279 13.3599C15.7589 12.8 18.3988 12.64 21.0386 12.8C23.6785 12.96 26.0784 13.4399 28.0783 14.2399C30.3982 15.1198 32.1581 16.2398 33.198 17.5997L33.438 17.8397H35.3579C35.8379 17.8397 36.1579 17.4397 35.9179 16.8798C33.358 13.9999 27.7583 12 20.2387 12C11.8391 12 3.99951 15.5998 3.99951 20.3996C3.99951 25.1993 11.7591 28.8791 20.6387 28.7992C28.3183 28.7192 32.8781 26.7193 35.5179 24.3194C36.3979 23.5994 35.9179 22.9594 35.2779 22.9594V22.9594Z" fill="white"/>
<path d="M14.7189 21.9995H14.8789V18.8796H14.2389V19.9996C14.2389 20.0796 14.2389 20.2396 14.0789 20.2396H12.799C12.719 20.2396 12.639 20.1596 12.639 20.0796V19.5996C12.639 19.0396 12.239 18.9596 12.079 18.9596H11.999V21.9995H12.639V20.9595C12.639 20.7996 12.719 20.7996 12.879 20.7996H13.9989C14.1589 20.7996 14.2389 20.8795 14.2389 21.0395V21.5195C14.2389 21.9195 14.6389 21.9995 14.7189 21.9995V21.9995ZM15.8388 18.7997H15.7588V21.9195H16.3988L17.6787 20.0796C17.7587 19.9996 17.9187 19.9196 17.9187 20.1596V21.3595C17.9187 21.9195 18.3187 21.9995 18.4787 21.9995H18.6387V18.8796H17.9987L16.7188 20.7196C16.6388 20.8795 16.4788 20.8795 16.4788 20.7196V19.5196C16.3188 18.8796 15.9988 18.7997 15.8388 18.7997V18.7997ZM23.7584 21.9995V19.5996C23.7584 19.5196 23.8384 19.4396 23.9984 19.4396H24.4784C24.7184 19.4396 24.8784 19.1196 24.8784 18.9596H22.4785C22.1585 18.9596 21.9985 19.1996 21.9185 19.4396H22.8785C23.0385 19.4396 23.0385 19.5196 23.0385 19.5996V21.9995H23.7584ZM28.7982 18.7997H28.6382V21.9195H29.2781L30.5581 20.0796C30.6381 19.9996 30.7981 19.9196 30.7981 20.1596V21.3595C30.7981 21.9195 31.198 21.9995 31.358 21.9995H31.518V18.8796H30.8781L29.5981 20.7196C29.5181 20.8795 29.3581 20.8795 29.3581 20.7196V19.5196C29.3581 18.8796 28.9582 18.7997 28.7982 18.7997V18.7997ZM9.75913 21.9995H10.2391C10.7191 21.9995 11.1991 21.5995 11.1991 21.0395V19.8396C11.1991 19.2796 10.7191 18.7997 10.1591 18.7997H9.75913C9.19916 18.7997 8.79918 19.1996 8.79918 19.7596V19.9996C8.79918 20.1596 8.71918 20.2396 8.55919 20.2396H8.07922C7.99922 20.2396 7.91922 20.1596 7.91922 20.0796V19.5196C7.91922 18.9596 7.51924 18.8796 7.35925 18.8796V21.9995H7.99922V20.8795C7.99922 20.7196 8.07922 20.7196 8.23921 20.7196H8.63919C8.79918 20.7196 8.79918 20.7996 8.79918 20.9595V21.1195C8.71918 21.5995 9.19916 21.9995 9.75913 21.9995V21.9995ZM9.35915 19.8396C9.35915 19.5196 9.59914 19.2796 9.91912 19.2796H10.0791C10.3991 19.2796 10.6391 19.5196 10.6391 19.8396V20.9595C10.6391 21.2795 10.3991 21.5195 10.0791 21.5195H9.91912C9.59914 21.5195 9.35915 21.2795 9.35915 20.9595V19.8396ZM20.3186 19.3596H21.1186C21.3585 19.2796 21.4385 19.1196 21.5185 18.8796H20.2386C19.6786 18.8796 19.2787 19.2796 19.2787 19.8396V20.9595C19.2787 21.5195 19.6786 21.9195 20.2386 21.9195H21.5985C21.5985 21.6795 21.3585 21.5195 21.1986 21.4395H20.3186C20.0786 21.4395 19.9986 21.2795 19.9986 21.1195V19.7596C19.9986 19.5196 20.1586 19.3596 20.3186 19.3596V19.3596ZM27.1183 18.8796H25.4383V21.9995H26.1583V20.9595H27.0383C27.4382 20.9595 27.7582 20.7196 27.9182 20.4796C28.0782 20.1596 27.9982 19.8396 27.9182 19.4396C27.8382 19.1196 27.5182 18.8796 27.1183 18.8796ZM26.9583 20.4796H26.1583C26.1583 20.4796 26.0783 20.4796 26.0783 20.3996V19.5196C26.0783 19.5196 26.0783 19.4396 26.1583 19.4396H27.0383C27.2782 19.4396 27.3582 19.5996 27.3582 19.7596V20.1596C27.4382 20.2396 27.1982 20.4796 26.9583 20.4796V20.4796ZM35.2778 21.3595C35.2778 21.9195 35.6778 21.9995 35.8378 21.9995H35.9978V18.8796H35.1978C35.0379 18.8796 34.9579 18.9596 34.9579 19.0396L34.3179 20.7196C34.2379 20.9595 34.0779 20.9595 33.9979 20.7196C33.7579 20.1596 33.5979 19.6796 33.4379 19.1196C33.4379 19.0396 33.3579 18.9596 33.1979 18.9596H32.398V21.9995H32.558C32.718 21.9995 33.118 21.9995 33.118 21.3595V20.1596C33.118 19.9196 33.2779 19.9196 33.3579 20.0796L33.9179 21.5195H34.5579L35.1178 20.0796C35.1978 19.9196 35.3578 19.9196 35.3578 20.1596L35.2778 21.3595V21.3595Z" fill="white"/>
</svg>
