<svg width="41" height="41" viewBox="0 0 41 41" fill="none" xmlns="http://www.w3.org/2000/svg">
<path fill-rule="evenodd" clip-rule="evenodd" d="M20.9977 0.633789C21.5304 0.633789 22.097 0.655854 22.7243 0.706288V4.54399C22.7243 21.4535 23.3689 28.7633 25.8685 40.0353C22.6746 40.8343 19.2869 40.8343 16.0985 40.029C18.6147 28.675 19.264 21.3653 19.264 4.54399V0.706288C19.8976 0.655854 20.4642 0.633789 20.9977 0.633789ZM40.2957 22.065C40.2957 15.4881 36.7134 9.70559 31.3311 6.41162L31.4036 10.8766C34.603 13.6268 36.6298 17.6269 36.6298 22.065C36.6298 24.0919 36.1964 26.0257 35.436 27.7924C33.1199 25.5923 31.4698 23.0044 30.443 19.9484C29.2042 16.2494 28.915 12.1989 28.8709 7.25009L28.8764 5.12241L28.4225 4.93328L28.0064 4.77252C27.1648 4.45731 26.298 4.19726 25.4162 4.00025L25.4217 7.24378C25.5383 24.3314 28.4989 31.3748 32.9032 36.6688C37.4076 33.2693 40.2957 27.9926 40.2957 22.065ZM16.5666 7.24693L16.5721 4.0034C15.3838 4.26976 14.223 4.64801 13.1119 5.12556L13.1174 7.25324C13.0677 12.1973 12.784 16.2525 11.5453 19.9515C10.524 23.0075 8.86833 25.5907 6.55231 27.7956C5.79186 26.0288 5.35844 24.095 5.35844 22.0682C5.35844 17.6237 7.37974 13.63 10.5847 10.8798L10.6572 6.41478C5.26939 9.70244 1.68701 15.485 1.68701 22.0682C1.68701 27.9958 4.58066 33.2724 9.07952 36.672C13.4948 31.3843 16.45 24.3346 16.5666 7.24693Z" fill="#3B175C"/>
</svg>
