<svg width="40" height="40" viewBox="0 0 40 40" fill="none" xmlns="http://www.w3.org/2000/svg">
<rect width="40" height="40" fill="#1D1D1B"/>
<path d="M8 32.5645H31.6926V34.0004H8V32.5645Z" fill="#FFD101"/>
<path d="M12.0493 19.5263L17.6709 19.232L18.1447 28.2136L12.5231 28.5079L12.0493 19.5263V19.5263ZM18.4319 26.1818L19.8678 20.7396L28.5623 23.0658L27.1264 28.5079L18.4319 26.1818V26.1818ZM22.0074 19.0955L26.911 11.5498L31.628 14.6155L26.7315 22.1684L22.0074 19.0955ZM15.4309 9.54671L19.8104 6L25.4751 12.9929L21.0955 16.5396L15.4309 9.54671V9.54671ZM8 14.6155L16.4001 11.3919L18.4176 16.6473L10.0175 19.8566L8 14.6155Z" fill="white"/>
</svg>
