<svg width="40" height="41" viewBox="0 0 40 41" fill="none" xmlns="http://www.w3.org/2000/svg">
<path d="M20 40.5C31.0457 40.5 40 31.5457 40 20.5C40 9.45431 31.0457 0.5 20 0.5C8.95431 0.5 0 9.45431 0 20.5C0 31.5457 8.95431 40.5 20 40.5Z" fill="black"/>
<path d="M27.237 33.0553H22.8465V11.3407H20.8907C17.3056 11.3407 15.4277 13.1332 15.4277 15.809C15.4277 18.8449 16.723 20.2514 19.4025 22.044L21.6107 23.5322L15.2644 33.0516H10.5437L16.2553 24.5528C12.9709 22.2073 11.1227 19.9174 11.1227 16.054C11.1227 11.2256 14.4888 7.94116 20.861 7.94116H27.2073V33.0479H27.237V33.0553Z" fill="white"/>
</svg>
