<svg width="40" height="40" viewBox="0 0 40 40" fill="none" xmlns="http://www.w3.org/2000/svg">
<path d="M25.7578 6C17.862 6 11.518 12.3874 11.518 20.1937C11.518 28.0645 17.9247 34.3875 25.7561 34.3875C33.5875 34.3875 40 28.0001 40 20.1937C40 12.3874 33.5892 6 25.7578 6ZM25.7578 25.4841C22.8454 25.4841 20.4515 23.0969 20.4515 20.1937C20.4515 17.2906 22.8454 14.9034 25.7578 14.9034C28.6701 14.9034 31.0648 17.2906 31.0648 20.1937C30.9996 23.0969 28.6701 25.4841 25.7578 25.4841ZM11.518 10.1239V30.7694H6.47268L0 10.1239H11.518Z" fill="#8B3FFD"/>
</svg>
